<svg xmlns="http://www.w3.org/2000/svg"
     viewBox="0 0 1024 1024">

  <g transform="translate(512,512) scale(1.25) translate(-219,-219)" fill="#FFFFFF">

    <path d="M206.875,24.488C92.621,24.488,0,117.109,0,231.363v79.318
      c0,23.72,19.229,42.948,42.948,42.948h8.584c9.489,0,17.182,7.692,17.182,17.182
      c0,9.488,7.693,17.181,17.182,17.181h92.456c31.719,0,57.431-25.712,57.431-57.431
      c0-36.474-14.898-133.861,110.057-133.861h65.014l0.016,0.061
      C394.402,98.979,309.337,24.488,206.875,24.488z
      M148.373,332.104c-13.488,0-24.424-10.935-24.424-24.423
      c0-13.489,10.936-24.423,24.424-24.423
      s24.423,10.934,24.423,24.423
      C172.796,321.17,161.861,332.104,148.373,332.104z"/>

    <path d="M385.193,413.668H303.24c-8.939,0-21.989-1.085-32.065-10.464
      c-10.096-9.398-15.003-24.777-15.003-47.018
      c0-4.142,3.358-7.5,7.5-7.5s7.5,3.358,7.5,7.5
      c0,39.2,16.553,42.482,32.068,42.482h81.953
      c16.734,0,37.963-20.002,37.963-42.482v-18.424h-193.4
      c-2.57,0-4.961-1.316-6.336-3.487l-32.373-51.115
      c-1.7-2.684-1.524-6.147,0.438-8.645l64.745-82.446
      c1.422-1.811,3.596-2.868,5.898-2.868h148.725
      c4.142,0,7.5,3.358,7.5,7.5s-3.358,7.5-7.5,7.5H265.774
      l-59.22,75.411 27.329,43.151h196.773
      c4.142,0,7.5,3.358,7.5,7.5v25.924
      C438.156,385.195,411.922,413.668,385.193,413.668z"/>

    <path d="M263.672,370.502c-4.142,0-7.5-3.358-7.5-7.5V196.7
      c0-4.142,3.358-7.5,7.5-7.5s7.5,3.358,7.5,7.5v166.302
      C271.172,367.144,267.814,370.502,263.672,370.502z"/>

    <path d="M378.756,413.668c-4.142,0-7.5-3.358-7.5-7.5V298.847
      c0-4.142,3.358-7.5,7.5-7.5s7.5,3.358,7.5,7.5v107.321
      C386.256,410.31,382.898,413.668,378.756,413.668z"/>

    <path d="M430.656,337.762c-4.142,0-7.5-3.358-7.5-7.5v-23.915H209.859
      c-4.142,0-7.5-3.358-7.5-7.5s3.358-7.5,7.5-7.5h220.797
      c4.142,0,7.5,3.358,7.5,7.5v31.415
      C438.156,334.404,434.798,337.762,430.656,337.762z"/>

  </g>
</svg>
