<svg viewBox="0 0 1024 1024" xmlns="http://www.w3.org/2000/svg"> <g transform="translate(512,512) scale(38) translate(-12,-12)"><circle cx="12" cy="12" r="9" fill="#FFFFFF" stroke="#000000" stroke-width="0.8"></circle><path d="M6.1,5.61A5.42,5.42,0,0,1,7,8.86c0,2.23-1,6-2.73,7.58" fill="none" stroke="#000000" stroke-linecap="round" stroke-linejoin="round" stroke-width="0.8"></path><path d="M17,19.33A14.08,14.08,0,0,1,15,12a8,8,0,0,1,3-6.51" fill="none" stroke="#000000" stroke-linecap="round" stroke-linejoin="round" stroke-width="0.8"></path><path d="M11.57,20.87A28.06,28.06,0,0,1,10,11.5a12.79,12.79,0,0,1,2.6-8.36" fill="none" stroke="#000000" stroke-linecap="round" stroke-linejoin="round" stroke-width="0.8"></path><path d="M3.25,10.38c3-1.69,7.06-1.9,11.22-.24A18.62,18.62,0,0,1,20.7,14.3" fill="none" stroke="#000000" stroke-linecap="round" stroke-linejoin="round" stroke-width="0.8"></path></g></svg>