<svg viewBox="0 0 1024 1024" xmlns="http://www.w3.org/2000/svg">
  <g transform="translate(512,512) scale(3.5) scale(-1, 1) translate(-87.67, -87.67)">
    <g fill="#FFFFFF" stroke="#000000" stroke-width="3" stroke-linejoin="round">
      <path d="M147.825,23.273C133.898,8.265,114.527,0,93.281,0h-5.766C44.73,0,9.766,34.041,8.222,76.465
        c-0.017,0.14-0.074,0.268-0.074,0.412v2.509v35.298v0.694c0,0.07,0.036,0.133,0.041,0.203
        c0.215,19.012,7.194,37.295,19.771,51.562c0.673,0.766,1.636,1.186,2.625,1.186c0.308,0,0.617-0.041,0.923-0.123l127.589-34.857
        c1.189-0.325,2.119-1.254,2.449-2.441c1.432-5.158,2.358-10.463,2.755-15.764l2.673-35.701
        C168.562,58.239,161.76,38.291,147.825,23.273z M15.149,79.84l72.902-12.175c5.932-0.988,10.652,0.103,12.941,2.997
        c2.287,2.895,2.259,7.735-0.075,13.279l-11.412,27.094l-74.356,0.804V79.84z M159.995,78.924l-2.673,35.701
        c-0.314,4.194-0.991,8.391-2.017,12.503L31.802,160.867c-9.869-11.894-15.588-26.622-16.473-42.029l76.547-0.825
        c1.394-0.014,2.647-0.858,3.187-2.143l12.303-29.21c3.406-8.084,3.093-15.306-0.882-20.337
        c-3.975-5.031-10.934-7.003-19.585-5.561L15.487,72.687C18.881,35.905,49.872,7,87.515,7h5.766
        c19.277,0,36.825,7.472,49.414,21.034C155.29,41.607,161.434,59.681,159.995,78.924z"/>
      <path d="M153.598,138.093L42.341,168.472c-1.866,0.509-2.965,2.434-2.456,4.3c0.426,1.555,1.835,2.577,3.375,2.577
        c0.304,0,0.615-0.041,0.923-0.123l111.257-30.379c1.866-0.509,2.965-2.434,2.456-4.3
        C157.385,138.684,155.454,137.587,153.598,138.093z"/>
    </g>
  </g>
</svg>
