<svg id="base-avatar-svg" viewBox="0 0 1024 1024" xmlns="http://www.w3.org/2000/svg">
  <!-- DEFINITIONS -->
  <defs>
    <path id="textPathRed" d="M 66,512 A 446,446 0 0 1 958,512"/>
    <path id="textPathBottom" d="M 66,512 A 446,446 0 0 0 958,512"/>
    <radialGradient id="badgeReflect" cx="50%" cy="30%" r="50%">
      <stop offset="0%" stop-color="white"/>
      <stop offset="100%" stop-color="transparent"/>
    </radialGradient>
  </defs>

  <!-- 1. OUTER RING -->
  <circle cx="512" cy="512" r="512" fill="#235789"/>

  <!-- 2. INNER RING -->
  <circle
    cx="512"
    cy="512"
    r="380"
    fill="none"
    stroke="#FF8700"
    stroke-width="22"
  />

  <!-- 3. BLACK CORE -->
  <circle cx="512" cy="512" r="369" fill="#000000"/>

  <!-- 4. CENTER ICON (DYNAMIC) -->
  <svg viewBox="0 0 1024 1024" xmlns="http://www.w3.org/2000/svg">
  <g transform="translate(512,512) scale(3.5) scale(-1, 1) translate(-87.67, -87.67)">
    <g fill="#FFFFFF" stroke="#000000" stroke-width="3" stroke-linejoin="round">
      <path d="M147.825,23.273C133.898,8.265,114.527,0,93.281,0h-5.766C44.73,0,9.766,34.041,8.222,76.465
        c-0.017,0.14-0.074,0.268-0.074,0.412v2.509v35.298v0.694c0,0.07,0.036,0.133,0.041,0.203
        c0.215,19.012,7.194,37.295,19.771,51.562c0.673,0.766,1.636,1.186,2.625,1.186c0.308,0,0.617-0.041,0.923-0.123l127.589-34.857
        c1.189-0.325,2.119-1.254,2.449-2.441c1.432-5.158,2.358-10.463,2.755-15.764l2.673-35.701
        C168.562,58.239,161.76,38.291,147.825,23.273z M15.149,79.84l72.902-12.175c5.932-0.988,10.652,0.103,12.941,2.997
        c2.287,2.895,2.259,7.735-0.075,13.279l-11.412,27.094l-74.356,0.804V79.84z M159.995,78.924l-2.673,35.701
        c-0.314,4.194-0.991,8.391-2.017,12.503L31.802,160.867c-9.869-11.894-15.588-26.622-16.473-42.029l76.547-0.825
        c1.394-0.014,2.647-0.858,3.187-2.143l12.303-29.21c3.406-8.084,3.093-15.306-0.882-20.337
        c-3.975-5.031-10.934-7.003-19.585-5.561L15.487,72.687C18.881,35.905,49.872,7,87.515,7h5.766
        c19.277,0,36.825,7.472,49.414,21.034C155.29,41.607,161.434,59.681,159.995,78.924z"/>
      <path d="M153.598,138.093L42.341,168.472c-1.866,0.509-2.965,2.434-2.456,4.3c0.426,1.555,1.835,2.577,3.375,2.577
        c0.304,0,0.615-0.041,0.923-0.123l111.257-30.379c1.866-0.509,2.965-2.434,2.456-4.3
        C157.385,138.684,155.454,137.587,153.598,138.093z"/>
    </g>
  </g>
</svg>


  <!-- 5. SHAREMATCH BOLT (UNCHANGED) -->
<g transform="translate(512,512) scale(0.85,0.9) translate(-512,-512)">
    <path
      fill="#035531"
      d="M 537.56 444.67 A 0.22 0.22 0.0 0 0 537.78 444.92
         Q 617.34 444.87 717.35 444.88 C 722.20 444.88
         727.04 444.74 729.31 449.11 C 732.26 454.79
         728.91 458.82 725.35 463.36
         C 648.18 561.91 556.92 677.88 480.98 775.23
         C 477.36 779.87 469.98 780.84 467.12 774.79
         C 465.99 772.40 465.89 768.32 466.31 765.40
         C 467.64 756.27 468.30 746.99 469.56 736.21
         Q 478.98 656.06 487.15 584.19
         Q 487.40 581.95 487.33 580.40
         A 0.52 0.51 -0.6 0 0 486.82 579.91
         Q 312.38 579.87 306.71 580.00
         Q 299.94 580.16 297.59 578.54
         Q 293.45 575.68 294.03 569.55
         Q 294.23 567.47 297.30 563.57
         Q 324.33 529.26 333.49 517.74
         Q 346.83 500.95 364.64 478.36
         Q 411.49 418.92 444.34 376.83
         C 446.77 373.72 449.17 371.20 450.92 368.76
         C 456.36 361.15 464.06 352.20 470.38 344.08
         C 495.25 312.14 523.41 277.01 540.12 255.37
         C 543.28 251.28 545.61 247.62 549.40 246.22
         Q 554.42 244.38 557.82 249.16
         A 3.31 3.18 -68.8 0 1 558.36 250.45
         Q 558.90 253.56 558.71 255.25
         C 556.28 276.65 554.88 291.85 552.23 313.23
         C 549.58 334.68 547.56 355.00 544.53 380.90
         Q 541.13 410.01 537.56 444.67 Z"
    />

    <path
      fill="#035531"
      d="M 522.89 650.90 A 0.22 0.22 0.0 0 0 523.28 651.08
         L 650.94 488.64 A 0.39 0.39 0.0 0 0 650.63 488.01
         Q 523.54 488.05 505.00 488.03
         C 497.28 488.02 491.26 484.63 491.30 476.49
         Q 491.32 472.66 491.96 467.50
         Q 497.84 420.26 502.98 372.23
         A 0.10 0.10 0.0 0 0 502.80 372.16
         L 373.73 536.39
         A 0.30 0.30 0.0 0 0 373.97 536.87
         Q 427.29 536.85 518.32 536.83
         Q 525.24 536.83 527.72 537.98
         C 532.57 540.22 534.68 546.11 534.11 551.28
         C 530.91 580.31 526.62 614.33 523.60 646.77
         Q 523.42 648.67 522.89 650.90 Z"
    />
  </g>

  <!-- 6. TOP TEXT (ASSET INITIALS) -->
  <text
    fill="#FF8700"
    font-size="110"
    font-weight="900"
    font-family="Inter, system-ui, sans-serif"
    letter-spacing="12"
  >
    <textPath
      href="#textPathRed"
      startOffset="50%"
      text-anchor="middle"
      dominant-baseline="middle"
    >
      OSC
    </textPath>
  </text>

  <!-- 7. BOTTOM TEXT (MARKET CODE) -->
  <text
    fill="#FF8700"
    font-size="110"
    font-weight="900"
    font-family="Inter, system-ui, sans-serif"
    letter-spacing="10"
  >
    <textPath
      href="#textPathBottom"
      startOffset="50%"
      text-anchor="middle"
      dominant-baseline="middle"
    >
      F1
    </textPath>
  </text>

  <!-- 8. GLOSS -->
  <circle
    cx="512"
    cy="512"
    r="512"
    fill="url(#badgeReflect)"
    opacity="0.04"
    pointer-events="none"
  />
</svg>
