<svg
  width="200"
  height="200"
  viewBox="0 -80 300 330"
  xmlns="http://www.w3.org/2000/svg"
  overflow="visible"
>

  <defs>
    <filter id="flagGlow" x="-80%" y="-80%" width="260%" height="260%">
      <feDropShadow dx="0" dy="0" stdDeviation="10"
        flood-color="#ffffff" flood-opacity="0.5">
        <animate attributeName="stdDeviation"
          values="8;20;8"
          dur="1.5s"
          repeatCount="indefinite"/>
        <animate attributeName="flood-opacity"
          values="0.3;0.8;0.3"
          dur="1.5s"
          repeatCount="indefinite"/>
      </feDropShadow>
    </filter>

    <filter id="boltGlowPulsing" x="-80%" y="-80%" width="260%" height="260%">
      <feDropShadow dx="0" dy="0" stdDeviation="14"
        flood-color="#00ff9c" flood-opacity="1">
        <animate attributeName="stdDeviation"
          values="5;25;5"
          dur="1.5s"
          repeatCount="indefinite"/>
      </feDropShadow>
      <feDropShadow dx="0" dy="0" stdDeviation="28"
        flood-color="#00ff9c" flood-opacity="0.6">
         <animate attributeName="stdDeviation"
          values="15;50;15"
          dur="1.5s"
          repeatCount="indefinite"/>
         <animate attributeName="flood-opacity"
          values="0.3;0.9;0.3"
          dur="1.5s"
          repeatCount="indefinite"/>
      </feDropShadow>
    </filter>
  </defs>

  <rect x="20" y="24" width="250" height="200" rx="18" fill="#E10600"/>

  <rect x="20" y="200" width="250" height="14" rx="3" fill="#FFFFFF"/>
  <rect x="20" y="190" width="250" height="14" rx="3" fill="#000000"/>

  <g transform="translate(145 60) scale(0.45) translate(-226 -226)">
      <g filter="url(#flagGlow)">
          <path fill="#000000" d="M382.08,60.394c-26.324-4.534-53.444-0.845-79.764,1.751c-26.223,2.587-53.604,5.753-79.585-0.397
			c-30.592-7.241-49.945-27.294-64.216-54.464c-3.935,10.646-7.869,21.291-11.803,31.938
			c-25.74,69.646-51.479,139.292-77.218,208.938L0,436.203l26.838,9.919l62.541-169.227c11.607,12.383,25.937,21.375,44.333,25.729
			c25.979,6.146,53.363,2.986,79.584,0.398c26.318-2.601,53.441-6.287,79.765-1.752c33.826,5.826,55.682,26.086,71.323,55.871
			c29.677-80.291,59.348-160.583,89.021-240.876C437.761,86.479,415.911,66.222,382.08,60.394z"/>
      </g>
      <g fill="#FFFFFF">
        <path d="M385.379,203.349c-13.234-11.169-27.441-18.638-44.57-21.931c-5.715,15.458-11.428,30.916-17.141,46.374c17.131,3.295,31.335,10.764,44.572,21.932c-5.239,14.176-10.479,28.353-15.717,42.526c-13.234-11.168-27.443-18.642-44.573-21.93c5.239-14.177,10.479-28.353,15.718-42.528c-17.442-2.813-34.473-2.797-52.072-1.72c-5.238,14.176-10.479,28.353-15.717,42.528c-18.21,1.471-36.358,3.56-54.567,5.028c5.238-14.178,10.478-28.353,15.716-42.526c-17.599,1.078-34.631,1.096-52.073-1.719c-5.239,14.176-10.478,28.352-15.717,42.526c-17.128-3.29-31.341-10.763-44.572-21.933c5.238-14.174,10.478-28.351,15.716-42.525c13.236,11.17,27.442,18.64,44.573,21.932c5.712-15.458,11.427-30.918,17.139-46.376c-17.13-3.285-31.338-10.766-44.573-21.93c5.714-15.46,11.427-30.92,17.14-46.378c13.236,11.173,27.442,18.635,44.572,21.933c5.239-14.176,10.478-28.351,15.717-42.525c17.442,2.813,34.476,2.797,52.073,1.717c-5.238,14.175-10.478,28.351-15.717,42.526c18.209-1.471,36.357-3.558,54.567-5.028c5.238-14.175,10.479-28.351,15.717-42.527c17.601-1.078,34.629-1.095,52.072,1.719c-5.239,14.176-10.478,28.351-15.717,42.528c17.131,3.294,31.335,10.761,44.573,21.93C396.806,172.431,391.095,187.891,385.379,203.349z"/>
		<path d="M234.167,184.726c-5.713,15.459-11.426,30.917-17.14,46.376c18.21-1.472,36.359-3.56,54.568-5.03c5.713-15.457,11.426-30.916,17.139-46.374C270.523,181.169,252.376,183.257,234.167,184.726z"/>
		<path d="M234.167,184.726c5.714-15.458,11.427-30.918,17.14-46.375c-17.604,1.075-34.629,1.093-52.075-1.718c-5.713,15.458-11.426,30.917-17.139,46.375C199.536,185.824,216.566,185.807,234.167,184.726z"/>
		<path d="M305.873,133.323c-5.713,15.458-11.426,30.916-17.139,46.375c17.601-1.075,34.629-1.093,52.073,1.72c5.712-15.458,11.426-30.917,17.138-46.375C340.503,132.229,323.474,132.243,305.873,133.323z"/>
      </g>
  </g>

  <g filter="url(#boltGlowPulsing)"
     transform="translate(150 92) scale(0.16) translate(-440 -815)">
    <path
      fill="#035531"
      stroke="#ffffff"
      stroke-width="22"
      stroke-linejoin="round"
      d="
      M 537.56 444.67
      Q 617.34 444.87 717.35 444.88
      C 729.31 449.11 728.91 458.82 725.35 463.36
      C 648.18 561.91 556.92 677.88 480.98 775.23
      C 477.36 779.87 469.98 780.84 467.12 774.79
      C 465.99 772.40 465.89 768.32 466.31 765.40
      Q 478.98 656.06 487.15 584.19
      Q 487.33 580.40 306.71 580.00
      Q 293.45 575.68 294.03 569.55
      Q 324.33 529.26 444.34 376.83
      Q 540.12 255.37 557.82 249.16
      Q 556.28 276.65 544.53 380.90
      Q 541.13 410.01 537.56 444.67 Z"
    />
  </g>

</svg>