<?xml version="1.0" encoding="UTF-8" standalone="no"?>
<!DOCTYPE svg PUBLIC "-//W3C//DTD SVG 1.1//EN" "http://www.w3.org/Graphics/SVG/1.1/DTD/svg11.dtd">
<svg xmlns="http://www.w3.org/2000/svg" version="1.1" viewBox="0.00 0.00 1024.00 1024.00">
<g stroke-width="2.00" fill="none" stroke-linecap="butt">
<path stroke="#83ab97" vector-effect="non-scaling-stroke" d="
  M 537.56 444.67
  Q 541.13 410.01 544.53 380.90
  C 547.56 355.00 549.58 334.68 552.23 313.23
  C 554.88 291.85 556.28 276.65 558.71 255.25
  Q 558.90 253.56 558.36 250.45
  A 3.31 3.18 -68.8 0 0 557.82 249.16
  Q 554.42 244.38 549.40 246.22
  C 545.61 247.62 543.28 251.28 540.12 255.37
  C 523.41 277.01 495.25 312.14 470.38 344.08
  C 464.06 352.20 456.36 361.15 450.92 368.76
  C 449.17 371.20 446.77 373.72 444.34 376.83
  Q 411.49 418.92 364.64 478.36
  Q 346.83 500.95 333.49 517.74
  Q 324.33 529.26 297.30 563.57
  Q 294.23 567.47 294.03 569.55
  Q 293.45 575.68 297.59 578.54
  Q 299.94 580.16 306.71 580.00
  Q 312.38 579.87 486.82 579.91
  A 0.52 0.51 -0.6 0 1 487.33 580.40
  Q 487.40 581.95 487.15 584.19
  Q 478.98 656.06 469.56 736.21
  C 468.30 746.99 467.64 756.27 466.31 765.40
  C 465.89 768.32 465.99 772.40 467.12 774.79
  C 469.98 780.84 477.36 779.87 480.98 775.23
  C 556.92 677.88 648.18 561.91 725.35 463.36
  C 728.91 458.82 732.26 454.79 729.31 449.11
  C 727.04 444.74 722.20 444.88 717.35 444.88
  Q 617.34 444.87 537.78 444.92
  A 0.22 0.22 0.0 0 1 537.56 444.67"
/>
<path stroke="#83ab97" vector-effect="non-scaling-stroke" d="
  M 522.89 650.90
  A 0.22 0.22 0.0 0 0 523.28 651.08
  L 650.94 488.64
  A 0.39 0.39 0.0 0 0 650.63 488.01
  Q 523.54 488.05 505.00 488.03
  C 497.28 488.02 491.26 484.63 491.30 476.49
  Q 491.32 472.66 491.96 467.50
  Q 497.84 420.26 502.98 372.23
  A 0.10 0.10 0.0 0 0 502.80 372.16
  L 373.73 536.39
  A 0.30 0.30 0.0 0 0 373.97 536.87
  Q 427.29 536.85 518.32 536.83
  Q 525.24 536.83 527.72 537.98
  C 532.57 540.22 534.68 546.11 534.11 551.28
  C 530.91 580.31 526.62 614.33 523.60 646.77
  Q 523.42 648.67 522.89 650.90"
/>
</g>
<path fill="#ffffff" d="
  M 1024.00 0.00
  L 1024.00 1024.00
  L 0.00 1024.00
  L 0.00 0.00
  L 1024.00 0.00
  Z
  M 537.56 444.67
  Q 541.13 410.01 544.53 380.90
  C 547.56 355.00 549.58 334.68 552.23 313.23
  C 554.88 291.85 556.28 276.65 558.71 255.25
  Q 558.90 253.56 558.36 250.45
  A 3.31 3.18 -68.8 0 0 557.82 249.16
  Q 554.42 244.38 549.40 246.22
  C 545.61 247.62 543.28 251.28 540.12 255.37
  C 523.41 277.01 495.25 312.14 470.38 344.08
  C 464.06 352.20 456.36 361.15 450.92 368.76
  C 449.17 371.20 446.77 373.72 444.34 376.83
  Q 411.49 418.92 364.64 478.36
  Q 346.83 500.95 333.49 517.74
  Q 324.33 529.26 297.30 563.57
  Q 294.23 567.47 294.03 569.55
  Q 293.45 575.68 297.59 578.54
  Q 299.94 580.16 306.71 580.00
  Q 312.38 579.87 486.82 579.91
  A 0.52 0.51 -0.6 0 1 487.33 580.40
  Q 487.40 581.95 487.15 584.19
  Q 478.98 656.06 469.56 736.21
  C 468.30 746.99 467.64 756.27 466.31 765.40
  C 465.89 768.32 465.99 772.40 467.12 774.79
  C 469.98 780.84 477.36 779.87 480.98 775.23
  C 556.92 677.88 648.18 561.91 725.35 463.36
  C 728.91 458.82 732.26 454.79 729.31 449.11
  C 727.04 444.74 722.20 444.88 717.35 444.88
  Q 617.34 444.87 537.78 444.92
  A 0.22 0.22 0.0 0 1 537.56 444.67
  Z"
/>
<path fill="#07562f" d="
  M 537.56 444.67
  A 0.22 0.22 0.0 0 0 537.78 444.92
  Q 617.34 444.87 717.35 444.88
  C 722.20 444.88 727.04 444.74 729.31 449.11
  C 732.26 454.79 728.91 458.82 725.35 463.36
  C 648.18 561.91 556.92 677.88 480.98 775.23
  C 477.36 779.87 469.98 780.84 467.12 774.79
  C 465.99 772.40 465.89 768.32 466.31 765.40
  C 467.64 756.27 468.30 746.99 469.56 736.21
  Q 478.98 656.06 487.15 584.19
  Q 487.40 581.95 487.33 580.40
  A 0.52 0.51 -0.6 0 0 486.82 579.91
  Q 312.38 579.87 306.71 580.00
  Q 299.94 580.16 297.59 578.54
  Q 293.45 575.68 294.03 569.55
  Q 294.23 567.47 297.30 563.57
  Q 324.33 529.26 333.49 517.74
  Q 346.83 500.95 364.64 478.36
  Q 411.49 418.92 444.34 376.83
  C 446.77 373.72 449.17 371.20 450.92 368.76
  C 456.36 361.15 464.06 352.20 470.38 344.08
  C 495.25 312.14 523.41 277.01 540.12 255.37
  C 543.28 251.28 545.61 247.62 549.40 246.22
  Q 554.42 244.38 557.82 249.16
  A 3.31 3.18 -68.8 0 1 558.36 250.45
  Q 558.90 253.56 558.71 255.25
  C 556.28 276.65 554.88 291.85 552.23 313.23
  C 549.58 334.68 547.56 355.00 544.53 380.90
  Q 541.13 410.01 537.56 444.67
  Z
  M 522.89 650.90
  A 0.22 0.22 0.0 0 0 523.28 651.08
  L 650.94 488.64
  A 0.39 0.39 0.0 0 0 650.63 488.01
  Q 523.54 488.05 505.00 488.03
  C 497.28 488.02 491.26 484.63 491.30 476.49
  Q 491.32 472.66 491.96 467.50
  Q 497.84 420.26 502.98 372.23
  A 0.10 0.10 0.0 0 0 502.80 372.16
  L 373.73 536.39
  A 0.30 0.30 0.0 0 0 373.97 536.87
  Q 427.29 536.85 518.32 536.83
  Q 525.24 536.83 527.72 537.98
  C 532.57 540.22 534.68 546.11 534.11 551.28
  C 530.91 580.31 526.62 614.33 523.60 646.77
  Q 523.42 648.67 522.89 650.90
  Z"
/>
<path fill="#ffffff" d="
  M 522.89 650.90
  Q 523.42 648.67 523.60 646.77
  C 526.62 614.33 530.91 580.31 534.11 551.28
  C 534.68 546.11 532.57 540.22 527.72 537.98
  Q 525.24 536.83 518.32 536.83
  Q 427.29 536.85 373.97 536.87
  A 0.30 0.30 0.0 0 1 373.73 536.39
  L 502.80 372.16
  A 0.10 0.10 0.0 0 1 502.98 372.23
  Q 497.84 420.26 491.96 467.50
  Q 491.32 472.66 491.30 476.49
  C 491.26 484.63 497.28 488.02 505.00 488.03
  Q 523.54 488.05 650.63 488.01
  A 0.39 0.39 0.0 0 1 650.94 488.64
  L 523.28 651.08
  A 0.22 0.22 0.0 0 1 522.89 650.90
  Z"
/>
</svg>
