<?xml version="1.0" encoding="UTF-8" standalone="no"?>
<!DOCTYPE svg PUBLIC "-//W3C//DTD SVG 1.1//EN" "http://www.w3.org/Graphics/SVG/1.1/DTD/svg11.dtd">
<svg xmlns="http://www.w3.org/2000/svg" version="1.1" viewBox="0.00 0.00 1280.00 492.00">
<g stroke-width="2.00" fill="none" stroke-linecap="butt">
<path stroke="#8ca797" vector-effect="non-scaling-stroke" d="
  M 200.82 206.15
  Q 204.88 166.24 210.70 113.76
  Q 211.53 106.31 212.44 96.02
  C 212.95 90.14 206.68 89.48 203.54 93.54
  Q 91.61 238.16 64.88 273.12
  Q 60.80 278.46 64.51 282.46
  C 66.29 284.38 68.35 284.42 71.01 284.42
  Q 155.37 284.44 170.42 284.40
  A 0.89 0.88 3.4 0 1 171.30 285.39
  Q 167.30 318.77 163.99 351.25
  Q 161.84 372.30 159.08 393.75
  C 158.40 399.01 164.88 402.53 168.42 397.92
  Q 303.67 221.85 308.29 216.04
  C 310.76 212.93 310.82 208.01 306.27 206.70
  Q 305.26 206.41 302.75 206.41
  Q 240.12 206.53 201.10 206.47
  A 0.29 0.28 -87.2 0 1 200.82 206.15"
/>
<path stroke="#8ca797" vector-effect="non-scaling-stroke" d="
  M 421.73 200.69
  L 421.73 301.98
  A 0.60 0.60 0.0 0 0 422.33 302.58
  L 447.13 302.58
  A 0.58 0.58 0.0 0 0 447.71 301.99
  Q 447.61 278.38 447.88 263.91
  Q 447.97 258.65 449.21 255.53
  C 452.14 248.17 459.60 246.42 467.00 248.20
  C 472.63 249.55 474.26 257.76 474.32 262.51
  Q 474.44 274.11 474.33 302.09
  A 0.54 0.54 0.0 0 0 474.87 302.63
  L 499.73 302.63
  A 0.40 0.40 0.0 0 0 500.13 302.23
  Q 500.24 278.68 500.20 261.38
  C 500.17 244.92 494.70 230.82 476.98 227.02
  C 467.36 224.96 455.59 226.67 448.25 233.42
  A 0.29 0.29 0.0 0 1 447.76 233.21
  L 447.76 200.72
  A 0.50 0.50 0.0 0 0 447.26 200.22
  L 422.19 200.22
  A 0.47 0.46 90.0 0 0 421.73 200.69"
/>
<path stroke="#8ca797" vector-effect="non-scaling-stroke" d="
  M 1097.97 200.67
  L 1098.13 302.10
  A 0.60 0.60 0.0 0 0 1098.73 302.70
  L 1123.56 302.66
  A 0.58 0.58 0.0 0 0 1124.14 302.07
  Q 1124.01 278.42 1124.25 263.93
  Q 1124.34 258.67 1125.57 255.54
  C 1128.49 248.16 1135.96 246.40 1143.38 248.17
  C 1149.02 249.51 1150.66 257.73 1150.73 262.49
  Q 1150.87 274.10 1150.80 302.12
  A 0.54 0.54 0.0 0 0 1151.34 302.66
  L 1176.24 302.62
  A 0.40 0.40 0.0 0 0 1176.64 302.22
  Q 1176.71 278.64 1176.64 261.32
  C 1176.59 244.83 1171.09 230.72 1153.34 226.94
  C 1143.70 224.90 1131.91 226.63 1124.58 233.40
  A 0.29 0.29 0.0 0 1 1124.08 233.19
  L 1124.03 200.65
  A 0.50 0.50 0.0 0 0 1123.53 200.15
  L 1098.43 200.19
  A 0.47 0.46 89.9 0 0 1097.97 200.67"
/>
<path stroke="#8ca797" vector-effect="non-scaling-stroke" d="
  M 407.07 210.76
  Q 406.06 210.34 400.69 208.11
  Q 376.95 198.27 352.11 205.34
  Q 346.94 206.81 340.71 211.54
  C 331.70 218.38 328.40 228.76 330.46 240.01
  C 333.20 254.94 349.05 260.47 361.72 263.24
  Q 369.36 264.90 377.38 267.34
  C 381.89 268.71 386.47 271.49 384.63 277.18
  C 383.01 282.18 374.48 283.67 370.00 283.56
  Q 351.66 283.13 336.89 272.83
  A 0.57 0.57 0.0 0 0 336.04 273.06
  L 327.26 292.16
  A 1.02 1.01 28.8 0 0 327.64 293.44
  C 342.86 303.13 363.11 306.05 380.77 303.74
  C 394.80 301.90 409.47 293.05 411.31 277.94
  C 413.72 258.15 401.45 249.37 383.95 245.09
  Q 373.54 242.54 365.96 240.50
  C 363.21 239.76 360.21 238.43 358.15 236.83
  C 355.18 234.53 355.00 230.81 357.45 228.04
  C 361.05 223.97 367.81 223.24 373.00 223.49
  Q 387.03 224.16 398.94 231.27
  A 0.55 0.55 0.0 0 0 399.73 231.00
  L 407.50 211.80
  A 0.80 0.80 0.0 0 0 407.07 210.76"
/>
<path stroke="#8ca797" vector-effect="non-scaling-stroke" d="
  M 771.15 251.00
  L 794.71 291.81
  A 1.69 1.69 0.0 0 0 796.17 292.65
  L 807.71 292.65
  A 1.15 1.15 0.0 0 0 808.71 292.07
  L 832.94 250.10
  A 0.19 0.19 0.0 0 1 833.30 250.20
  L 833.30 301.91
  A 0.77 0.77 0.0 0 0 834.07 302.68
  L 857.77 302.68
  A 0.55 0.55 0.0 0 0 858.32 302.13
  L 858.32 205.67
  A 0.74 0.74 0.0 0 0 857.58 204.93
  L 835.67 204.93
  A 1.25 1.24 15.0 0 0 834.59 205.55
  L 802.77 260.68
  A 0.52 0.51 44.8 0 1 801.88 260.68
  L 769.27 205.80
  A 1.65 1.63 74.5 0 0 767.86 204.99
  L 746.21 204.99
  A 0.58 0.58 0.0 0 0 745.63 205.57
  L 745.63 301.93
  A 0.75 0.75 0.0 0 0 746.38 302.68
  L 770.51 302.68
  A 0.53 0.53 0.0 0 0 771.04 302.15
  L 771.04 251.03
  A 0.06 0.06 0.0 0 1 771.15 251.00"
/>
<path stroke="#8ca797" vector-effect="non-scaling-stroke" d="
  M 961.95 248.79
  Q 962.09 253.00 961.97 276.00
  C 961.89 292.67 971.05 302.56 987.72 304.01
  Q 999.80 305.06 1010.49 299.86
  A 0.72 0.71 67.2 0 0 1010.85 298.96
  L 1004.62 282.05
  A 0.79 0.79 0.0 0 0 1003.38 281.71
  Q 999.05 285.28 993.64 284.04
  C 990.14 283.23 987.86 280.55 987.79 276.98
  Q 987.71 273.47 987.78 248.72
  A 0.61 0.60 -90.0 0 1 988.38 248.11
  L 1004.90 248.11
  A 0.41 0.41 0.0 0 0 1005.31 247.70
  L 1005.31 229.70
  A 0.63 0.63 0.0 0 0 1004.68 229.07
  L 988.31 229.07
  A 0.59 0.59 0.0 0 1 987.72 228.48
  L 987.72 210.31
  A 0.43 0.42 90.0 0 0 987.30 209.88
  L 962.68 209.88
  A 0.54 0.54 0.0 0 0 962.14 210.42
  L 962.14 228.68
  A 0.52 0.52 0.0 0 1 961.62 229.20
  L 951.50 229.20
  A 0.60 0.60 0.0 0 0 950.90 229.80
  L 950.90 247.13
  A 1.03 1.03 0.0 0 0 951.93 248.16
  L 961.30 248.16
  A 0.65 0.65 0.0 0 1 961.95 248.79"
/>
<path stroke="#8ca797" vector-effect="non-scaling-stroke" d="
  M 624.06 235.35
  L 624.06 227.97
  A 0.65 0.65 0.0 0 0 623.41 227.32
  L 600.36 227.32
  A 0.61 0.61 0.0 0 0 599.75 227.93
  L 599.75 302.17
  A 0.50 0.49 90.0 0 0 600.24 302.67
  L 625.07 302.67
  A 0.44 0.44 0.0 0 0 625.51 302.23
  Q 625.71 287.61 625.58 275.71
  C 625.45 263.54 624.75 253.89 636.46 249.67
  C 640.27 248.30 644.87 248.54 649.23 248.66
  A 0.48 0.48 0.0 0 0 649.72 248.18
  L 649.72 226.31
  A 0.40 0.39 89.3 0 0 649.32 225.91
  C 641.32 225.96 632.49 227.42 626.76 233.30
  Q 624.77 235.34 624.51 235.56
  A 0.27 0.27 0.0 0 1 624.06 235.35"
/>
<path stroke="#8ca797" vector-effect="non-scaling-stroke" d="
  M 558.01 257.24
  Q 555.39 257.34 545.02 257.27
  Q 532.35 257.18 522.05 262.06
  C 509.74 267.89 507.94 283.23 514.85 293.57
  C 519.18 300.07 527.26 303.36 535.24 304.03
  Q 548.84 305.17 558.36 297.87
  A 0.47 0.29 -13.3 0 0 558.47 297.76
  L 560.60 294.97
  A 0.32 0.32 0.0 0 1 561.18 295.16
  L 561.18 301.93
  A 0.72 0.72 0.0 0 0 561.90 302.65
  L 584.65 302.65
  A 0.55 0.54 -90.0 0 0 585.19 302.10
  Q 585.14 263.80 585.09 260.75
  C 584.98 253.08 583.45 244.07 578.70 238.23
  C 572.22 230.25 563.07 226.97 552.82 226.35
  C 539.67 225.56 525.07 227.40 514.62 235.15
  A 0.72 0.72 0.0 0 0 514.41 236.05
  L 522.11 251.23
  A 0.79 0.79 0.0 0 0 523.24 251.54
  Q 530.02 247.28 538.29 245.63
  C 547.12 243.86 557.71 245.74 558.66 256.51
  A 0.67 0.67 0.0 0 1 558.01 257.24"
/>
<path stroke="#8ca797" vector-effect="non-scaling-stroke" d="
  M 728.87 290.80
  A 0.49 0.48 -49.6 0 0 728.82 290.15
  L 715.34 277.55
  A 0.63 0.63 0.0 0 0 714.45 277.58
  C 708.57 283.97 698.95 285.62 690.65 283.36
  Q 681.78 280.94 679.23 272.17
  A 0.49 0.48 -8.0 0 1 679.70 271.55
  L 733.67 271.55
  A 0.62 0.62 0.0 0 0 734.29 270.94
  C 734.37 267.09 734.72 262.27 733.96 258.35
  Q 732.26 249.54 728.59 243.41
  C 721.89 232.23 709.76 226.49 696.70 226.20
  C 687.47 226.00 678.34 227.55 670.67 232.54
  Q 656.40 241.82 653.83 259.23
  C 651.89 272.38 655.85 285.41 666.15 294.05
  C 679.41 305.18 698.78 306.71 714.50 301.24
  Q 723.03 298.28 728.87 290.80"
/>
<path stroke="#8ca797" vector-effect="non-scaling-stroke" d="
  M 917.18 257.30
  Q 914.56 257.39 904.20 257.28
  Q 891.55 257.15 881.25 261.99
  C 868.93 267.77 867.08 283.08 873.95 293.43
  C 878.25 299.94 886.31 303.25 894.27 303.95
  Q 907.85 305.13 917.39 297.88
  A 0.47 0.29 -13.1 0 0 917.50 297.77
  L 919.63 294.99
  A 0.32 0.32 0.0 0 1 920.21 295.18
  L 920.19 301.94
  A 0.72 0.72 0.0 0 0 920.91 302.66
  L 943.63 302.74
  A 0.55 0.54 -89.8 0 0 944.17 302.19
  Q 944.25 263.94 944.21 260.90
  C 944.13 253.24 942.63 244.23 937.91 238.38
  C 931.46 230.39 922.34 227.08 912.10 226.43
  C 898.97 225.59 884.38 227.38 873.92 235.09
  A 0.72 0.72 0.0 0 0 873.71 235.98
  L 881.34 251.17
  A 0.79 0.79 0.0 0 0 882.47 251.48
  Q 889.26 247.25 897.52 245.63
  C 906.35 243.90 916.92 245.81 917.83 256.57
  A 0.67 0.67 0.0 0 1 917.18 257.30"
/>
<path stroke="#8ca797" vector-effect="non-scaling-stroke" d="
  M 1068.97 273.69
  C 1064.61 282.87 1053.86 286.83 1045.17 280.78
  C 1039.82 277.06 1037.79 270.70 1037.94 264.01
  C 1038.14 255.42 1041.77 248.13 1050.91 246.48
  C 1057.67 245.26 1063.79 247.83 1067.61 253.60
  Q 1069.19 255.99 1069.23 256.04
  A 0.64 0.63 57.7 0 0 1070.01 256.22
  L 1088.81 246.69
  A 0.59 0.58 -26.1 0 0 1089.08 245.93
  C 1081.52 229.06 1063.92 224.63 1046.99 226.69
  Q 1030.67 228.67 1020.57 240.85
  C 1009.36 254.36 1009.35 275.02 1019.46 288.44
  C 1030.12 302.59 1049.08 306.64 1065.99 302.94
  C 1076.00 300.74 1086.11 293.20 1089.64 283.25
  A 0.63 0.63 0.0 0 0 1089.31 282.47
  L 1069.66 273.44
  A 0.52 0.52 0.0 0 0 1068.97 273.69"
/>
<path stroke="#8ca797" vector-effect="non-scaling-stroke" d="
  M 108.27 258.71
  Q 132.43 258.81 183.27 258.67
  Q 192.27 258.65 194.14 259.41
  Q 199.05 261.43 198.24 268.74
  Q 195.26 295.79 192.07 325.96
  A 0.17 0.17 0.0 0 0 192.37 326.08
  L 264.02 232.30
  A 0.33 0.32 18.9 0 0 263.76 231.78
  Q 215.75 231.84 183.47 231.84
  C 173.93 231.84 173.67 226.03 174.41 217.99
  Q 176.65 193.62 180.16 164.95
  A 0.27 0.26 -22.9 0 0 179.68 164.76
  L 108.13 258.41
  A 0.19 0.18 -70.8 0 0 108.27 258.71"
/>
<path stroke="#8ca797" vector-effect="non-scaling-stroke" d="
  M 558.60 271.84
  A 0.51 0.51 0.0 0 0 558.09 271.32
  Q 550.81 271.47 545.05 271.62
  Q 541.39 271.72 539.10 273.17
  C 535.02 275.75 534.93 281.21 537.93 284.62
  C 541.22 288.38 548.30 287.95 552.28 285.80
  Q 555.48 284.06 557.46 280.38
  C 558.73 278.04 558.52 274.71 558.60 271.84"
/>
<path stroke="#8ca797" vector-effect="non-scaling-stroke" d="
  M 694.50 257.37
  Q 709.11 257.31 709.13 257.31
  A 0.64 0.63 -9.0 0 0 709.69 256.55
  C 708.11 248.99 702.13 244.33 694.45 244.36
  C 686.78 244.39 680.84 249.10 679.31 256.67
  A 0.64 0.63 8.5 0 0 679.88 257.43
  Q 679.89 257.43 694.50 257.37"
/>
<path stroke="#8ca797" vector-effect="non-scaling-stroke" d="
  M 918.14 271.92
  A 0.51 0.51 0.0 0 0 917.63 271.40
  Q 910.29 271.47 904.48 271.57
  Q 900.78 271.63 898.46 273.07
  C 894.32 275.63 894.17 281.14 897.16 284.61
  C 900.45 288.43 907.59 288.07 911.63 285.94
  Q 914.87 284.22 916.91 280.53
  C 918.21 278.18 918.03 274.82 918.14 271.92"
/>
</g>
<path fill="#ffffff" d="
  M 1280.00 0.00
  L 1280.00 492.00
  L 0.00 492.00
  L 0.00 0.00
  L 1280.00 0.00
  Z
  M 200.82 206.15
  Q 204.88 166.24 210.70 113.76
  Q 211.53 106.31 212.44 96.02
  C 212.95 90.14 206.68 89.48 203.54 93.54
  Q 91.61 238.16 64.88 273.12
  Q 60.80 278.46 64.51 282.46
  C 66.29 284.38 68.35 284.42 71.01 284.42
  Q 155.37 284.44 170.42 284.40
  A 0.89 0.88 3.4 0 1 171.30 285.39
  Q 167.30 318.77 163.99 351.25
  Q 161.84 372.30 159.08 393.75
  C 158.40 399.01 164.88 402.53 168.42 397.92
  Q 303.67 221.85 308.29 216.04
  C 310.76 212.93 310.82 208.01 306.27 206.70
  Q 305.26 206.41 302.75 206.41
  Q 240.12 206.53 201.10 206.47
  A 0.29 0.28 -87.2 0 1 200.82 206.15
  Z
  M 421.73 200.69
  L 421.73 301.98
  A 0.60 0.60 0.0 0 0 422.33 302.58
  L 447.13 302.58
  A 0.58 0.58 0.0 0 0 447.71 301.99
  Q 447.61 278.38 447.88 263.91
  Q 447.97 258.65 449.21 255.53
  C 452.14 248.17 459.60 246.42 467.00 248.20
  C 472.63 249.55 474.26 257.76 474.32 262.51
  Q 474.44 274.11 474.33 302.09
  A 0.54 0.54 0.0 0 0 474.87 302.63
  L 499.73 302.63
  A 0.40 0.40 0.0 0 0 500.13 302.23
  Q 500.24 278.68 500.20 261.38
  C 500.17 244.92 494.70 230.82 476.98 227.02
  C 467.36 224.96 455.59 226.67 448.25 233.42
  A 0.29 0.29 0.0 0 1 447.76 233.21
  L 447.76 200.72
  A 0.50 0.50 0.0 0 0 447.26 200.22
  L 422.19 200.22
  A 0.47 0.46 90.0 0 0 421.73 200.69
  Z
  M 1097.97 200.67
  L 1098.13 302.10
  A 0.60 0.60 0.0 0 0 1098.73 302.70
  L 1123.56 302.66
  A 0.58 0.58 0.0 0 0 1124.14 302.07
  Q 1124.01 278.42 1124.25 263.93
  Q 1124.34 258.67 1125.57 255.54
  C 1128.49 248.16 1135.96 246.40 1143.38 248.17
  C 1149.02 249.51 1150.66 257.73 1150.73 262.49
  Q 1150.87 274.10 1150.80 302.12
  A 0.54 0.54 0.0 0 0 1151.34 302.66
  L 1176.24 302.62
  A 0.40 0.40 0.0 0 0 1176.64 302.22
  Q 1176.71 278.64 1176.64 261.32
  C 1176.59 244.83 1171.09 230.72 1153.34 226.94
  C 1143.70 224.90 1131.91 226.63 1124.58 233.40
  A 0.29 0.29 0.0 0 1 1124.08 233.19
  L 1124.03 200.65
  A 0.50 0.50 0.0 0 0 1123.53 200.15
  L 1098.43 200.19
  A 0.47 0.46 89.9 0 0 1097.97 200.67
  Z
  M 407.07 210.76
  Q 406.06 210.34 400.69 208.11
  Q 376.95 198.27 352.11 205.34
  Q 346.94 206.81 340.71 211.54
  C 331.70 218.38 328.40 228.76 330.46 240.01
  C 333.20 254.94 349.05 260.47 361.72 263.24
  Q 369.36 264.90 377.38 267.34
  C 381.89 268.71 386.47 271.49 384.63 277.18
  C 383.01 282.18 374.48 283.67 370.00 283.56
  Q 351.66 283.13 336.89 272.83
  A 0.57 0.57 0.0 0 0 336.04 273.06
  L 327.26 292.16
  A 1.02 1.01 28.8 0 0 327.64 293.44
  C 342.86 303.13 363.11 306.05 380.77 303.74
  C 394.80 301.90 409.47 293.05 411.31 277.94
  C 413.72 258.15 401.45 249.37 383.95 245.09
  Q 373.54 242.54 365.96 240.50
  C 363.21 239.76 360.21 238.43 358.15 236.83
  C 355.18 234.53 355.00 230.81 357.45 228.04
  C 361.05 223.97 367.81 223.24 373.00 223.49
  Q 387.03 224.16 398.94 231.27
  A 0.55 0.55 0.0 0 0 399.73 231.00
  L 407.50 211.80
  A 0.80 0.80 0.0 0 0 407.07 210.76
  Z
  M 771.15 251.00
  L 794.71 291.81
  A 1.69 1.69 0.0 0 0 796.17 292.65
  L 807.71 292.65
  A 1.15 1.15 0.0 0 0 808.71 292.07
  L 832.94 250.10
  A 0.19 0.19 0.0 0 1 833.30 250.20
  L 833.30 301.91
  A 0.77 0.77 0.0 0 0 834.07 302.68
  L 857.77 302.68
  A 0.55 0.55 0.0 0 0 858.32 302.13
  L 858.32 205.67
  A 0.74 0.74 0.0 0 0 857.58 204.93
  L 835.67 204.93
  A 1.25 1.24 15.0 0 0 834.59 205.55
  L 802.77 260.68
  A 0.52 0.51 44.8 0 1 801.88 260.68
  L 769.27 205.80
  A 1.65 1.63 74.5 0 0 767.86 204.99
  L 746.21 204.99
  A 0.58 0.58 0.0 0 0 745.63 205.57
  L 745.63 301.93
  A 0.75 0.75 0.0 0 0 746.38 302.68
  L 770.51 302.68
  A 0.53 0.53 0.0 0 0 771.04 302.15
  L 771.04 251.03
  A 0.06 0.06 0.0 0 1 771.15 251.00
  Z
  M 961.95 248.79
  Q 962.09 253.00 961.97 276.00
  C 961.89 292.67 971.05 302.56 987.72 304.01
  Q 999.80 305.06 1010.49 299.86
  A 0.72 0.71 67.2 0 0 1010.85 298.96
  L 1004.62 282.05
  A 0.79 0.79 0.0 0 0 1003.38 281.71
  Q 999.05 285.28 993.64 284.04
  C 990.14 283.23 987.86 280.55 987.79 276.98
  Q 987.71 273.47 987.78 248.72
  A 0.61 0.60 -90.0 0 1 988.38 248.11
  L 1004.90 248.11
  A 0.41 0.41 0.0 0 0 1005.31 247.70
  L 1005.31 229.70
  A 0.63 0.63 0.0 0 0 1004.68 229.07
  L 988.31 229.07
  A 0.59 0.59 0.0 0 1 987.72 228.48
  L 987.72 210.31
  A 0.43 0.42 90.0 0 0 987.30 209.88
  L 962.68 209.88
  A 0.54 0.54 0.0 0 0 962.14 210.42
  L 962.14 228.68
  A 0.52 0.52 0.0 0 1 961.62 229.20
  L 951.50 229.20
  A 0.60 0.60 0.0 0 0 950.90 229.80
  L 950.90 247.13
  A 1.03 1.03 0.0 0 0 951.93 248.16
  L 961.30 248.16
  A 0.65 0.65 0.0 0 1 961.95 248.79
  Z
  M 624.06 235.35
  L 624.06 227.97
  A 0.65 0.65 0.0 0 0 623.41 227.32
  L 600.36 227.32
  A 0.61 0.61 0.0 0 0 599.75 227.93
  L 599.75 302.17
  A 0.50 0.49 90.0 0 0 600.24 302.67
  L 625.07 302.67
  A 0.44 0.44 0.0 0 0 625.51 302.23
  Q 625.71 287.61 625.58 275.71
  C 625.45 263.54 624.75 253.89 636.46 249.67
  C 640.27 248.30 644.87 248.54 649.23 248.66
  A 0.48 0.48 0.0 0 0 649.72 248.18
  L 649.72 226.31
  A 0.40 0.39 89.3 0 0 649.32 225.91
  C 641.32 225.96 632.49 227.42 626.76 233.30
  Q 624.77 235.34 624.51 235.56
  A 0.27 0.27 0.0 0 1 624.06 235.35
  Z
  M 558.01 257.24
  Q 555.39 257.34 545.02 257.27
  Q 532.35 257.18 522.05 262.06
  C 509.74 267.89 507.94 283.23 514.85 293.57
  C 519.18 300.07 527.26 303.36 535.24 304.03
  Q 548.84 305.17 558.36 297.87
  A 0.47 0.29 -13.3 0 0 558.47 297.76
  L 560.60 294.97
  A 0.32 0.32 0.0 0 1 561.18 295.16
  L 561.18 301.93
  A 0.72 0.72 0.0 0 0 561.90 302.65
  L 584.65 302.65
  A 0.55 0.54 -90.0 0 0 585.19 302.10
  Q 585.14 263.80 585.09 260.75
  C 584.98 253.08 583.45 244.07 578.70 238.23
  C 572.22 230.25 563.07 226.97 552.82 226.35
  C 539.67 225.56 525.07 227.40 514.62 235.15
  A 0.72 0.72 0.0 0 0 514.41 236.05
  L 522.11 251.23
  A 0.79 0.79 0.0 0 0 523.24 251.54
  Q 530.02 247.28 538.29 245.63
  C 547.12 243.86 557.71 245.74 558.66 256.51
  A 0.67 0.67 0.0 0 1 558.01 257.24
  Z
  M 728.87 290.80
  A 0.49 0.48 -49.6 0 0 728.82 290.15
  L 715.34 277.55
  A 0.63 0.63 0.0 0 0 714.45 277.58
  C 708.57 283.97 698.95 285.62 690.65 283.36
  Q 681.78 280.94 679.23 272.17
  A 0.49 0.48 -8.0 0 1 679.70 271.55
  L 733.67 271.55
  A 0.62 0.62 0.0 0 0 734.29 270.94
  C 734.37 267.09 734.72 262.27 733.96 258.35
  Q 732.26 249.54 728.59 243.41
  C 721.89 232.23 709.76 226.49 696.70 226.20
  C 687.47 226.00 678.34 227.55 670.67 232.54
  Q 656.40 241.82 653.83 259.23
  C 651.89 272.38 655.85 285.41 666.15 294.05
  C 679.41 305.18 698.78 306.71 714.50 301.24
  Q 723.03 298.28 728.87 290.80
  Z
  M 917.18 257.30
  Q 914.56 257.39 904.20 257.28
  Q 891.55 257.15 881.25 261.99
  C 868.93 267.77 867.08 283.08 873.95 293.43
  C 878.25 299.94 886.31 303.25 894.27 303.95
  Q 907.85 305.13 917.39 297.88
  A 0.47 0.29 -13.1 0 0 917.50 297.77
  L 919.63 294.99
  A 0.32 0.32 0.0 0 1 920.21 295.18
  L 920.19 301.94
  A 0.72 0.72 0.0 0 0 920.91 302.66
  L 943.63 302.74
  A 0.55 0.54 -89.8 0 0 944.17 302.19
  Q 944.25 263.94 944.21 260.90
  C 944.13 253.24 942.63 244.23 937.91 238.38
  C 931.46 230.39 922.34 227.08 912.10 226.43
  C 898.97 225.59 884.38 227.38 873.92 235.09
  A 0.72 0.72 0.0 0 0 873.71 235.98
  L 881.34 251.17
  A 0.79 0.79 0.0 0 0 882.47 251.48
  Q 889.26 247.25 897.52 245.63
  C 906.35 243.90 916.92 245.81 917.83 256.57
  A 0.67 0.67 0.0 0 1 917.18 257.30
  Z
  M 1068.97 273.69
  C 1064.61 282.87 1053.86 286.83 1045.17 280.78
  C 1039.82 277.06 1037.79 270.70 1037.94 264.01
  C 1038.14 255.42 1041.77 248.13 1050.91 246.48
  C 1057.67 245.26 1063.79 247.83 1067.61 253.60
  Q 1069.19 255.99 1069.23 256.04
  A 0.64 0.63 57.7 0 0 1070.01 256.22
  L 1088.81 246.69
  A 0.59 0.58 -26.1 0 0 1089.08 245.93
  C 1081.52 229.06 1063.92 224.63 1046.99 226.69
  Q 1030.67 228.67 1020.57 240.85
  C 1009.36 254.36 1009.35 275.02 1019.46 288.44
  C 1030.12 302.59 1049.08 306.64 1065.99 302.94
  C 1076.00 300.74 1086.11 293.20 1089.64 283.25
  A 0.63 0.63 0.0 0 0 1089.31 282.47
  L 1069.66 273.44
  A 0.52 0.52 0.0 0 0 1068.97 273.69
  Z"
/>
<path fill="#184e2f" d="
  M 200.82 206.15
  A 0.29 0.28 -87.2 0 0 201.10 206.47
  Q 240.12 206.53 302.75 206.41
  Q 305.26 206.41 306.27 206.70
  C 310.82 208.01 310.76 212.93 308.29 216.04
  Q 303.67 221.85 168.42 397.92
  C 164.88 402.53 158.40 399.01 159.08 393.75
  Q 161.84 372.30 163.99 351.25
  Q 167.30 318.77 171.30 285.39
  A 0.89 0.88 3.4 0 0 170.42 284.40
  Q 155.37 284.44 71.01 284.42
  C 68.35 284.42 66.29 284.38 64.51 282.46
  Q 60.80 278.46 64.88 273.12
  Q 91.61 238.16 203.54 93.54
  C 206.68 89.48 212.95 90.14 212.44 96.02
  Q 211.53 106.31 210.70 113.76
  Q 204.88 166.24 200.82 206.15
  Z
  M 108.27 258.71
  Q 132.43 258.81 183.27 258.67
  Q 192.27 258.65 194.14 259.41
  Q 199.05 261.43 198.24 268.74
  Q 195.26 295.79 192.07 325.96
  A 0.17 0.17 0.0 0 0 192.37 326.08
  L 264.02 232.30
  A 0.33 0.32 18.9 0 0 263.76 231.78
  Q 215.75 231.84 183.47 231.84
  C 173.93 231.84 173.67 226.03 174.41 217.99
  Q 176.65 193.62 180.16 164.95
  A 0.27 0.26 -22.9 0 0 179.68 164.76
  L 108.13 258.41
  A 0.19 0.18 -70.8 0 0 108.27 258.71
  Z"
/>
<path fill="#ffffff" d="
  M 108.27 258.71
  A 0.19 0.18 -70.8 0 1 108.13 258.41
  L 179.68 164.76
  A 0.27 0.26 -22.9 0 1 180.16 164.95
  Q 176.65 193.62 174.41 217.99
  C 173.67 226.03 173.93 231.84 183.47 231.84
  Q 215.75 231.84 263.76 231.78
  A 0.33 0.32 18.9 0 1 264.02 232.30
  L 192.37 326.08
  A 0.17 0.17 0.0 0 1 192.07 325.96
  Q 195.26 295.79 198.24 268.74
  Q 199.05 261.43 194.14 259.41
  Q 192.27 258.65 183.27 258.67
  Q 132.43 258.81 108.27 258.71
  Z"
/>
<path fill="#184e2f" d="
  M 421.73 200.69
  A 0.47 0.46 90.0 0 1 422.19 200.22
  L 447.26 200.22
  A 0.50 0.50 0.0 0 1 447.76 200.72
  L 447.76 233.21
  A 0.29 0.29 0.0 0 0 448.25 233.42
  C 455.59 226.67 467.36 224.96 476.98 227.02
  C 494.70 230.82 500.17 244.92 500.20 261.38
  Q 500.24 278.68 500.13 302.23
  A 0.40 0.40 0.0 0 1 499.73 302.63
  L 474.87 302.63
  A 0.54 0.54 0.0 0 1 474.33 302.09
  Q 474.44 274.11 474.32 262.51
  C 474.26 257.76 472.63 249.55 467.00 248.20
  C 459.60 246.42 452.14 248.17 449.21 255.53
  Q 447.97 258.65 447.88 263.91
  Q 447.61 278.38 447.71 301.99
  A 0.58 0.58 0.0 0 1 447.13 302.58
  L 422.33 302.58
  A 0.60 0.60 0.0 0 1 421.73 301.98
  L 421.73 200.69
  Z"
/>
<path fill="#184e2f" d="
  M 1097.97 200.67
  A 0.47 0.46 89.9 0 1 1098.43 200.19
  L 1123.53 200.15
  A 0.50 0.50 0.0 0 1 1124.03 200.65
  L 1124.08 233.19
  A 0.29 0.29 0.0 0 0 1124.58 233.40
  C 1131.91 226.63 1143.70 224.90 1153.34 226.94
  C 1171.09 230.72 1176.59 244.83 1176.64 261.32
  Q 1176.71 278.64 1176.64 302.22
  A 0.40 0.40 0.0 0 1 1176.24 302.62
  L 1151.34 302.66
  A 0.54 0.54 0.0 0 1 1150.80 302.12
  Q 1150.87 274.10 1150.73 262.49
  C 1150.66 257.73 1149.02 249.51 1143.38 248.17
  C 1135.96 246.40 1128.49 248.16 1125.57 255.54
  Q 1124.34 258.67 1124.25 263.93
  Q 1124.01 278.42 1124.14 302.07
  A 0.58 0.58 0.0 0 1 1123.56 302.66
  L 1098.73 302.70
  A 0.60 0.60 0.0 0 1 1098.13 302.10
  L 1097.97 200.67
  Z"
/>
<path fill="#184e2f" d="
  M 407.07 210.76
  A 0.80 0.80 0.0 0 1 407.50 211.80
  L 399.73 231.00
  A 0.55 0.55 0.0 0 1 398.94 231.27
  Q 387.03 224.16 373.00 223.49
  C 367.81 223.24 361.05 223.97 357.45 228.04
  C 355.00 230.81 355.18 234.53 358.15 236.83
  C 360.21 238.43 363.21 239.76 365.96 240.50
  Q 373.54 242.54 383.95 245.09
  C 401.45 249.37 413.72 258.15 411.31 277.94
  C 409.47 293.05 394.80 301.90 380.77 303.74
  C 363.11 306.05 342.86 303.13 327.64 293.44
  A 1.02 1.01 28.8 0 1 327.26 292.16
  L 336.04 273.06
  A 0.57 0.57 0.0 0 1 336.89 272.83
  Q 351.66 283.13 370.00 283.56
  C 374.48 283.67 383.01 282.18 384.63 277.18
  C 386.47 271.49 381.89 268.71 377.38 267.34
  Q 369.36 264.90 361.72 263.24
  C 349.05 260.47 333.20 254.94 330.46 240.01
  C 328.40 228.76 331.70 218.38 340.71 211.54
  Q 346.94 206.81 352.11 205.34
  Q 376.95 198.27 400.69 208.11
  Q 406.06 210.34 407.07 210.76
  Z"
/>
<path fill="#184e2f" d="
  M 771.15 251.00
  A 0.06 0.06 0.0 0 0 771.04 251.03
  L 771.04 302.15
  A 0.53 0.53 0.0 0 1 770.51 302.68
  L 746.38 302.68
  A 0.75 0.75 0.0 0 1 745.63 301.93
  L 745.63 205.57
  A 0.58 0.58 0.0 0 1 746.21 204.99
  L 767.86 204.99
  A 1.65 1.63 74.5 0 1 769.27 205.80
  L 801.88 260.68
  A 0.52 0.51 44.8 0 0 802.77 260.68
  L 834.59 205.55
  A 1.25 1.24 15.0 0 1 835.67 204.93
  L 857.58 204.93
  A 0.74 0.74 0.0 0 1 858.32 205.67
  L 858.32 302.13
  A 0.55 0.55 0.0 0 1 857.77 302.68
  L 834.07 302.68
  A 0.77 0.77 0.0 0 1 833.30 301.91
  L 833.30 250.20
  A 0.19 0.19 0.0 0 0 832.94 250.10
  L 808.71 292.07
  A 1.15 1.15 0.0 0 1 807.71 292.65
  L 796.17 292.65
  A 1.69 1.69 0.0 0 1 794.71 291.81
  L 771.15 251.00
  Z"
/>
<path fill="#184e2f" d="
  M 961.30 248.16
  L 951.93 248.16
  A 1.03 1.03 0.0 0 1 950.90 247.13
  L 950.90 229.80
  A 0.60 0.60 0.0 0 1 951.50 229.20
  L 961.62 229.20
  A 0.52 0.52 0.0 0 0 962.14 228.68
  L 962.14 210.42
  A 0.54 0.54 0.0 0 1 962.68 209.88
  L 987.30 209.88
  A 0.43 0.42 -90.0 0 1 987.72 210.31
  L 987.72 228.48
  A 0.59 0.59 0.0 0 0 988.31 229.07
  L 1004.68 229.07
  A 0.63 0.63 0.0 0 1 1005.31 229.70
  L 1005.31 247.70
  A 0.41 0.41 0.0 0 1 1004.90 248.11
  L 988.38 248.11
  A 0.61 0.60 -90.0 0 0 987.78 248.72
  Q 987.71 273.47 987.79 276.98
  C 987.86 280.55 990.14 283.23 993.64 284.04
  Q 999.05 285.28 1003.38 281.71
  A 0.79 0.79 0.0 0 1 1004.62 282.05
  L 1010.85 298.96
  A 0.72 0.71 67.2 0 1 1010.49 299.86
  Q 999.80 305.06 987.72 304.01
  C 971.05 302.56 961.89 292.67 961.97 276.00
  Q 962.09 253.00 961.95 248.79
  A 0.65 0.65 0.0 0 0 961.30 248.16
  Z"
/>
<path fill="#184e2f" d="
  M 624.51 235.56
  Q 624.77 235.34 626.76 233.30
  C 632.49 227.42 641.32 225.96 649.32 225.91
  A 0.40 0.39 89.3 0 1 649.72 226.31
  L 649.72 248.18
  A 0.48 0.48 0.0 0 1 649.23 248.66
  C 644.87 248.54 640.27 248.30 636.46 249.67
  C 624.75 253.89 625.45 263.54 625.58 275.71
  Q 625.71 287.61 625.51 302.23
  A 0.44 0.44 0.0 0 1 625.07 302.67
  L 600.24 302.67
  A 0.50 0.49 90.0 0 1 599.75 302.17
  L 599.75 227.93
  A 0.61 0.61 0.0 0 1 600.36 227.32
  L 623.41 227.32
  A 0.65 0.65 0.0 0 1 624.06 227.97
  L 624.06 235.35
  A 0.27 0.27 0.0 0 0 624.51 235.56
  Z"
/>
<path fill="#184e2f" d="
  M 558.66 256.51
  C 557.71 245.74 547.12 243.86 538.29 245.63
  Q 530.02 247.28 523.24 251.54
  A 0.79 0.79 0.0 0 1 522.11 251.23
  L 514.41 236.05
  A 0.72 0.72 0.0 0 1 514.62 235.15
  C 525.07 227.40 539.67 225.56 552.82 226.35
  C 563.07 226.97 572.22 230.25 578.70 238.23
  C 583.45 244.07 584.98 253.08 585.09 260.75
  Q 585.14 263.80 585.19 302.10
  A 0.55 0.54 -90.0 0 1 584.65 302.65
  L 561.90 302.65
  A 0.72 0.72 0.0 0 1 561.18 301.93
  L 561.18 295.16
  A 0.32 0.32 0.0 0 0 560.60 294.97
  L 558.47 297.76
  A 0.47 0.29 -13.3 0 1 558.36 297.87
  Q 548.84 305.17 535.24 304.03
  C 527.26 303.36 519.18 300.07 514.85 293.57
  C 507.94 283.23 509.74 267.89 522.05 262.06
  Q 532.35 257.18 545.02 257.27
  Q 555.39 257.34 558.01 257.24
  A 0.67 0.67 0.0 0 0 558.66 256.51
  Z
  M 558.60 271.84
  A 0.51 0.51 0.0 0 0 558.09 271.32
  Q 550.81 271.47 545.05 271.62
  Q 541.39 271.72 539.10 273.17
  C 535.02 275.75 534.93 281.21 537.93 284.62
  C 541.22 288.38 548.30 287.95 552.28 285.80
  Q 555.48 284.06 557.46 280.38
  C 558.73 278.04 558.52 274.71 558.60 271.84
  Z"
/>
<path fill="#184e2f" d="
  M 728.87 290.80
  Q 723.03 298.28 714.50 301.24
  C 698.78 306.71 679.41 305.18 666.15 294.05
  C 655.85 285.41 651.89 272.38 653.83 259.23
  Q 656.40 241.82 670.67 232.54
  C 678.34 227.55 687.47 226.00 696.70 226.20
  C 709.76 226.49 721.89 232.23 728.59 243.41
  Q 732.26 249.54 733.96 258.35
  C 734.72 262.27 734.37 267.09 734.29 270.94
  A 0.62 0.62 0.0 0 1 733.67 271.55
  L 679.70 271.55
  A 0.49 0.48 -8.0 0 0 679.23 272.17
  Q 681.78 280.94 690.65 283.36
  C 698.95 285.62 708.57 283.97 714.45 277.58
  A 0.63 0.63 0.0 0 1 715.34 277.55
  L 728.82 290.15
  A 0.49 0.48 -49.6 0 1 728.87 290.80
  Z
  M 694.50 257.37
  Q 709.11 257.31 709.13 257.31
  A 0.64 0.63 -9.0 0 0 709.69 256.55
  C 708.11 248.99 702.13 244.33 694.45 244.36
  C 686.78 244.39 680.84 249.10 679.31 256.67
  A 0.64 0.63 8.5 0 0 679.88 257.43
  Q 679.89 257.43 694.50 257.37
  Z"
/>
<path fill="#184e2f" d="
  M 917.18 257.30
  A 0.67 0.67 0.0 0 0 917.83 256.57
  C 916.92 245.81 906.35 243.90 897.52 245.63
  Q 889.26 247.25 882.47 251.48
  A 0.79 0.79 0.0 0 1 881.34 251.17
  L 873.71 235.98
  A 0.72 0.72 0.0 0 1 873.92 235.09
  C 884.38 227.38 898.97 225.59 912.10 226.43
  C 922.34 227.08 931.46 230.39 937.91 238.38
  C 942.63 244.23 944.13 253.24 944.21 260.90
  Q 944.25 263.94 944.17 302.19
  A 0.55 0.54 -89.8 0 1 943.63 302.74
  L 920.91 302.66
  A 0.72 0.72 0.0 0 1 920.19 301.94
  L 920.21 295.18
  A 0.32 0.32 0.0 0 0 919.63 294.99
  L 917.50 297.77
  A 0.47 0.29 -13.1 0 1 917.39 297.88
  Q 907.85 305.13 894.27 303.95
  C 886.31 303.25 878.25 299.94 873.95 293.43
  C 867.08 283.08 868.93 267.77 881.25 261.99
  Q 891.55 257.15 904.20 257.28
  Q 914.56 257.39 917.18 257.30
  Z
  M 918.14 271.92
  A 0.51 0.51 0.0 0 0 917.63 271.40
  Q 910.29 271.47 904.48 271.57
  Q 900.78 271.63 898.46 273.07
  C 894.32 275.63 894.17 281.14 897.16 284.61
  C 900.45 288.43 907.59 288.07 911.63 285.94
  Q 914.87 284.22 916.91 280.53
  C 918.21 278.18 918.03 274.82 918.14 271.92
  Z"
/>
<path fill="#184e2f" d="
  M 1068.97 273.69
  A 0.52 0.52 0.0 0 1 1069.66 273.44
  L 1089.31 282.47
  A 0.63 0.63 0.0 0 1 1089.64 283.25
  C 1086.11 293.20 1076.00 300.74 1065.99 302.94
  C 1049.08 306.64 1030.12 302.59 1019.46 288.44
  C 1009.35 275.02 1009.36 254.36 1020.57 240.85
  Q 1030.67 228.67 1046.99 226.69
  C 1063.92 224.63 1081.52 229.06 1089.08 245.93
  A 0.59 0.58 -26.1 0 1 1088.81 246.69
  L 1070.01 256.22
  A 0.64 0.63 57.7 0 1 1069.23 256.04
  Q 1069.19 255.99 1067.61 253.60
  C 1063.79 247.83 1057.67 245.26 1050.91 246.48
  C 1041.77 248.13 1038.14 255.42 1037.94 264.01
  C 1037.79 270.70 1039.82 277.06 1045.17 280.78
  C 1053.86 286.83 1064.61 282.87 1068.97 273.69
  Z"
/>
<path fill="#ffffff" d="
  M 694.45 244.36
  C 702.13 244.33 708.11 248.99 709.69 256.55
  A 0.64 0.63 -9.0 0 1 709.13 257.31
  Q 709.11 257.31 694.50 257.37
  Q 679.89 257.43 679.88 257.43
  A 0.64 0.63 8.5 0 1 679.31 256.67
  C 680.84 249.10 686.78 244.39 694.45 244.36
  Z"
/>
<path fill="#ffffff" d="
  M 918.14 271.92
  C 918.03 274.82 918.21 278.18 916.91 280.53
  Q 914.87 284.22 911.63 285.94
  C 907.59 288.07 900.45 288.43 897.16 284.61
  C 894.17 281.14 894.32 275.63 898.46 273.07
  Q 900.78 271.63 904.48 271.57
  Q 910.29 271.47 917.63 271.40
  A 0.51 0.51 0.0 0 1 918.14 271.92
  Z"
/>
<path fill="#ffffff" d="
  M 558.60 271.84
  C 558.52 274.71 558.73 278.04 557.46 280.38
  Q 555.48 284.06 552.28 285.80
  C 548.30 287.95 541.22 288.38 537.93 284.62
  C 534.93 281.21 535.02 275.75 539.10 273.17
  Q 541.39 271.72 545.05 271.62
  Q 550.81 271.47 558.09 271.32
  A 0.51 0.51 0.0 0 1 558.60 271.84
  Z"
/>
</svg>
