<?xml version="1.0" encoding="UTF-8" standalone="no"?>
<!DOCTYPE svg PUBLIC "-//W3C//DTD SVG 1.1//EN" "http://www.w3.org/Graphics/SVG/1.1/DTD/svg11.dtd">
<svg xmlns="http://www.w3.org/2000/svg" version="1.1" viewBox="0.00 0.00 1664.00 640.00">
<g stroke-width="2.00" fill="none" stroke-linecap="butt">
<path stroke="#808080" vector-effect="non-scaling-stroke" d="
  M 277.47 266.00
  Q 277.92 260.19 278.91 251.40
  Q 279.46 246.60 293.35 115.81
  C 293.79 111.64 294.93 105.16 293.29 102.46
  C 289.81 96.74 283.12 100.58 280.35 104.86
  Q 274.55 113.79 269.61 120.37
  Q 267.86 122.70 239.47 163.45
  Q 153.02 287.50 116.62 340.12
  Q 105.14 356.71 101.41 361.96
  Q 98.82 365.60 98.92 368.68
  Q 99.09 374.17 103.19 376.52
  Q 105.25 377.70 112.23 377.67
  Q 145.27 377.53 239.03 377.61
  A 0.33 0.32 3.1 0 1 239.36 377.97
  Q 231.35 457.26 225.19 519.51
  Q 224.49 526.58 223.73 532.26
  C 222.63 540.45 232.39 545.35 237.25 538.25
  C 241.97 531.38 244.82 526.83 249.10 520.76
  Q 252.57 515.84 282.58 472.55
  Q 405.51 295.23 414.57 282.31
  C 418.21 277.12 418.52 269.23 411.17 267.12
  Q 409.34 266.59 405.88 266.60
  Q 375.09 266.68 278.04 266.61
  A 0.57 0.56 2.3 0 1 277.47 266.00"
/>
<path stroke="#808080" vector-effect="non-scaling-stroke" d="
  M 579.61 313.61
  L 579.61 263.74
  A 0.33 0.32 90.0 0 0 579.29 263.41
  L 546.73 263.41
  A 0.66 0.65 -90.0 0 0 546.08 264.07
  L 546.08 419.61
  A 0.32 0.32 0.0 0 0 546.40 419.93
  L 579.08 419.93
  A 0.47 0.47 0.0 0 0 579.55 419.46
  Q 579.59 366.04 579.59 360.88
  C 579.61 350.32 582.71 338.83 593.93 336.14
  C 602.72 334.04 610.63 338.14 612.87 347.06
  Q 614.45 353.37 614.47 356.51
  Q 614.63 379.25 614.50 419.59
  A 0.40 0.40 0.0 0 0 614.90 419.99
  L 647.58 419.99
  A 0.43 0.42 90.0 0 0 648.00 419.56
  Q 648.02 385.84 648.07 359.50
  C 648.09 346.66 647.35 333.63 641.28 322.44
  Q 632.16 305.61 613.01 303.40
  Q 593.60 301.16 580.11 313.83
  A 0.30 0.30 0.0 0 1 579.61 313.61"
/>
<path stroke="#808080" vector-effect="non-scaling-stroke" d="
  M 1466.53 313.69
  L 1466.52 263.78
  A 0.33 0.32 90.0 0 0 1466.20 263.45
  L 1433.61 263.46
  A 0.66 0.65 90.0 0 0 1432.96 264.12
  L 1432.98 419.78
  A 0.32 0.32 0.0 0 0 1433.30 420.10
  L 1466.01 420.10
  A 0.47 0.47 0.0 0 0 1466.48 419.63
  Q 1466.51 366.17 1466.51 361.00
  C 1466.53 350.43 1469.63 338.93 1480.86 336.24
  C 1489.66 334.14 1497.58 338.24 1499.82 347.17
  Q 1501.40 353.48 1501.42 356.62
  Q 1501.58 379.38 1501.46 419.76
  A 0.40 0.40 0.0 0 0 1501.86 420.16
  L 1534.57 420.15
  A 0.43 0.42 90.0 0 0 1534.99 419.72
  Q 1535.00 385.97 1535.05 359.61
  C 1535.07 346.76 1534.32 333.72 1528.25 322.52
  Q 1519.12 305.68 1499.95 303.47
  Q 1480.53 301.23 1467.03 313.91
  A 0.30 0.30 0.0 0 1 1466.53 313.69"
/>
<path stroke="#808080" vector-effect="non-scaling-stroke" d="
  M 434.16 374.13
  L 423.57 403.56
  A 0.60 0.58 33.0 0 0 423.71 404.18
  Q 425.85 406.32 430.12 409.13
  Q 444.35 418.50 460.85 421.17
  C 472.22 423.01 484.98 423.01 496.47 420.21
  C 516.48 415.34 530.80 399.85 532.39 378.94
  C 533.48 364.55 529.68 351.21 518.40 341.93
  C 512.53 337.09 504.41 333.81 496.91 331.61
  Q 487.18 328.74 476.92 325.81
  C 470.19 323.88 462.13 321.11 460.93 313.40
  C 459.56 304.61 469.02 299.51 476.28 298.93
  C 491.17 297.75 503.22 302.49 515.77 310.55
  A 0.43 0.42 26.3 0 0 516.40 310.34
  L 527.20 280.31
  A 0.56 0.56 0.0 0 0 527.02 279.68
  Q 514.98 270.67 496.99 267.54
  C 481.04 264.77 462.67 265.78 448.58 273.92
  C 434.52 282.04 426.75 295.95 426.30 312.18
  C 425.88 327.25 430.08 340.52 443.16 349.00
  Q 449.01 352.79 453.68 354.54
  Q 465.01 358.78 480.93 362.92
  C 486.93 364.48 496.61 368.01 497.62 374.95
  C 500.54 395.10 468.28 390.36 458.01 386.72
  Q 445.13 382.16 434.87 373.93
  A 0.45 0.45 0.0 0 0 434.16 374.13"
/>
<path stroke="#808080" vector-effect="non-scaling-stroke" d="
  M 1052.33 404.85
  A 0.31 0.31 0.0 0 0 1052.61 404.68
  L 1084.51 341.08
  A 0.31 0.31 0.0 0 1 1085.10 341.22
  L 1085.10 419.75
  A 0.31 0.31 0.0 0 0 1085.41 420.06
  L 1117.66 420.06
  A 0.31 0.31 0.0 0 0 1117.97 419.75
  L 1117.97 270.70
  A 0.31 0.31 0.0 0 0 1117.66 270.39
  L 1087.83 270.39
  A 0.31 0.31 0.0 0 0 1087.55 270.56
  L 1044.65 356.06
  A 0.31 0.31 0.0 0 1 1044.10 356.07
  L 1000.38 270.58
  A 0.31 0.31 0.0 0 0 1000.10 270.41
  L 970.46 270.41
  A 0.31 0.31 0.0 0 0 970.15 270.72
  L 970.15 419.72
  A 0.31 0.31 0.0 0 0 970.46 420.03
  L 1002.52 420.03
  A 0.31 0.31 0.0 0 0 1002.83 419.72
  L 1002.83 342.89
  A 0.31 0.31 0.0 0 1 1003.42 342.75
  L 1035.09 404.68
  A 0.31 0.31 0.0 0 0 1035.37 404.85
  L 1052.33 404.85"
/>
<path stroke="#808080" vector-effect="non-scaling-stroke" d="
  M 1239.12 308.68
  L 1239.12 336.36
  A 0.48 0.48 0.0 0 0 1239.60 336.84
  L 1253.04 336.84
  A 0.82 0.82 0.0 0 1 1253.86 337.66
  Q 1253.60 374.04 1253.83 380.50
  Q 1254.04 386.43 1255.05 391.71
  C 1257.16 402.81 1264.02 414.30 1274.72 418.51
  Q 1292.13 425.36 1309.78 418.74
  Q 1313.87 417.21 1316.13 415.40
  A 1.37 1.36 -27.5 0 0 1316.59 413.96
  L 1309.22 388.00
  A 0.52 0.52 0.0 0 0 1308.40 387.73
  Q 1303.02 391.91 1295.99 390.72
  C 1290.20 389.74 1287.78 383.72 1287.64 378.75
  Q 1287.41 370.76 1287.58 337.41
  A 0.60 0.59 0.0 0 1 1288.18 336.82
  L 1309.64 336.82
  A 0.55 0.55 0.0 0 0 1310.19 336.27
  L 1310.19 308.50
  A 0.63 0.63 0.0 0 0 1309.56 307.87
  L 1288.13 307.87
  A 0.62 0.62 0.0 0 1 1287.51 307.25
  L 1287.51 278.30
  A 0.65 0.65 0.0 0 0 1286.86 277.65
  L 1254.42 277.65
  A 0.60 0.60 0.0 0 0 1253.82 278.25
  L 1253.82 307.26
  A 0.68 0.68 0.0 0 1 1253.14 307.94
  L 1239.86 307.94
  A 0.74 0.74 0.0 0 0 1239.12 308.68"
/>
<path stroke="#808080" vector-effect="non-scaling-stroke" d="
  M 728.50 408.52
  L 728.50 419.25
  A 0.74 0.73 0.0 0 0 729.24 419.98
  L 759.28 419.98
  A 0.32 0.32 0.0 0 0 759.60 419.66
  Q 759.53 396.27 759.58 358.50
  C 759.60 338.26 755.92 315.95 733.85 307.38
  C 712.54 299.09 686.28 302.68 667.65 316.06
  A 1.30 1.30 0.0 0 0 667.21 317.64
  L 677.56 341.48
  A 0.65 0.65 0.0 0 0 678.53 341.75
  C 686.55 336.01 696.40 332.20 706.49 332.13
  C 715.66 332.07 722.43 335.94 724.94 344.76
  Q 725.70 347.44 725.65 350.05
  A 0.57 0.56 -89.0 0 1 725.08 350.61
  Q 705.58 350.34 699.14 350.87
  C 681.00 352.34 665.15 360.61 662.60 380.23
  C 658.93 408.43 682.07 426.68 708.91 420.99
  Q 721.35 418.35 727.93 408.35
  A 0.31 0.31 0.0 0 1 728.50 408.52"
/>
<path stroke="#808080" vector-effect="non-scaling-stroke" d="
  M 1199.28 408.29
  L 1199.28 419.38
  A 0.69 0.68 90.0 0 0 1199.96 420.07
  L 1229.36 420.07
  A 0.34 0.34 0.0 0 0 1229.70 419.73
  Q 1229.73 392.96 1229.69 353.51
  C 1229.67 338.24 1225.48 321.91 1213.31 312.44
  C 1205.21 306.13 1193.89 303.40 1183.25 303.00
  C 1167.27 302.41 1150.55 306.64 1137.84 316.27
  A 0.95 0.95 0.0 0 0 1137.54 317.40
  L 1148.15 341.83
  A 0.47 0.46 -29.8 0 0 1148.86 342.02
  Q 1156.17 336.50 1165.02 333.81
  C 1171.27 331.92 1181.46 330.83 1187.27 334.24
  C 1192.96 337.57 1195.99 343.46 1195.96 350.18
  A 0.58 0.57 2.7 0 1 1195.33 350.75
  Q 1192.45 350.44 1174.99 350.66
  C 1158.92 350.86 1142.05 355.66 1135.43 371.61
  C 1132.07 379.69 1132.03 389.74 1134.63 397.87
  C 1141.04 417.89 1160.93 425.17 1180.38 420.84
  Q 1192.19 418.21 1198.76 408.13
  A 0.29 0.28 61.8 0 1 1199.28 408.29"
/>
<path stroke="#808080" vector-effect="non-scaling-stroke" d="
  M 1394.77 375.35
  Q 1394.13 377.65 1392.13 380.88
  C 1382.28 396.75 1361.23 391.85 1355.90 375.18
  Q 1353.22 366.77 1354.22 357.00
  C 1356.78 332.05 1383.54 324.61 1394.98 348.74
  A 0.41 0.40 -28.3 0 0 1395.56 348.91
  L 1420.77 333.66
  A 0.63 0.63 0.0 0 0 1421.02 332.86
  Q 1418.75 327.72 1415.22 322.53
  C 1396.48 294.94 1351.74 297.78 1332.81 323.25
  C 1318.90 341.96 1316.80 366.15 1324.88 387.60
  C 1331.24 404.49 1345.06 416.90 1363.16 420.70
  C 1378.40 423.89 1394.04 421.73 1406.22 411.70
  Q 1416.81 402.98 1421.96 389.99
  A 0.43 0.43 0.0 0 0 1421.76 389.45
  L 1395.38 375.09
  A 0.42 0.42 0.0 0 0 1394.77 375.35"
/>
<path stroke="#808080" vector-effect="non-scaling-stroke" d="
  M 811.04 317.85
  L 811.04 305.81
  A 0.54 0.54 0.0 0 0 810.50 305.27
  L 779.71 305.27
  A 0.35 0.35 0.0 0 0 779.36 305.62
  L 779.36 419.58
  A 0.46 0.46 0.0 0 0 779.82 420.04
  L 812.17 420.04
  A 0.52 0.51 -0.0 0 0 812.69 419.53
  Q 812.66 392.40 812.75 366.60
  C 812.78 355.06 815.57 342.08 828.34 338.85
  C 833.26 337.60 838.18 338.18 843.25 338.20
  A 0.65 0.65 0.0 0 0 843.90 337.55
  L 843.90 303.97
  A 0.54 0.54 0.0 0 0 843.37 303.43
  C 831.38 303.06 818.39 307.58 811.59 318.02
  A 0.30 0.30 0.0 0 1 811.04 317.85"
/>
<path stroke="#808080" vector-effect="non-scaling-stroke" d="
  M 882.40 372.51
  L 954.06 372.51
  A 0.45 0.44 2.0 0 0 954.51 372.10
  C 957.07 342.95 946.67 311.28 914.67 304.38
  Q 903.67 302.02 892.56 304.14
  C 869.57 308.52 855.09 325.83 850.72 348.23
  C 842.43 390.63 868.77 426.02 913.49 421.64
  Q 935.07 419.52 947.92 402.38
  A 1.03 1.02 40.9 0 0 947.82 401.04
  Q 937.78 391.04 930.09 381.31
  A 0.37 0.37 0.0 0 0 929.52 381.30
  Q 917.45 395.31 898.95 390.81
  C 890.23 388.69 884.39 381.44 882.06 372.96
  A 0.35 0.35 0.0 0 1 882.40 372.51"
/>
<path stroke="#808080" vector-effect="non-scaling-stroke" d="
  M 267.03 437.21
  Q 267.06 437.20 267.11 437.19
  A 0.17 0.15 3.2 0 0 267.21 437.11
  Q 275.41 424.53 283.11 413.36
  Q 327.59 348.86 330.45 344.70
  Q 346.05 322.06 359.40 303.05
  A 0.27 0.27 0.0 0 0 359.18 302.63
  Q 264.35 302.56 254.50 302.61
  Q 245.54 302.66 243.00 296.36
  Q 241.66 293.04 242.72 282.57
  Q 246.97 240.60 250.98 207.80
  A 0.16 0.15 -2.7 0 0 250.79 207.63
  Q 250.48 207.70 250.26 208.01
  Q 203.74 274.57 157.43 340.91
  A 0.19 0.18 16.9 0 0 157.59 341.20
  Q 253.33 341.19 258.39 341.16
  C 266.06 341.11 271.49 340.37 274.44 347.07
  Q 275.71 349.95 274.85 358.09
  Q 270.66 397.47 266.88 437.08
  A 0.12 0.12 0.0 0 0 267.03 437.21"
/>
<path stroke="#808080" vector-effect="non-scaling-stroke" d="
  M 725.19 372.26
  Q 710.40 372.01 706.52 372.54
  Q 695.47 374.05 694.99 383.78
  C 694.72 389.12 697.87 394.28 703.02 395.67
  Q 716.57 399.31 724.02 387.38
  C 726.16 383.97 726.06 375.92 725.83 372.87
  A 0.66 0.66 0.0 0 0 725.19 372.26"
/>
<path stroke="#808080" vector-effect="non-scaling-stroke" d="
  M 1195.76 372.19
  Q 1180.92 372.02 1177.03 372.58
  Q 1165.96 374.16 1165.53 383.92
  C 1165.29 389.28 1168.48 394.44 1173.65 395.80
  Q 1187.27 399.38 1194.67 387.37
  C 1196.80 383.93 1196.66 375.86 1196.41 372.80
  A 0.67 0.66 88.1 0 0 1195.76 372.19"
/>
<path stroke="#808080" vector-effect="non-scaling-stroke" d="
  M 902.69 350.80
  Q 918.64 350.82 922.24 350.93
  A 0.51 0.51 0.0 0 0 922.76 350.35
  C 921.32 339.75 914.01 331.24 902.72 331.23
  C 891.43 331.21 884.10 339.70 882.63 350.29
  A 0.51 0.51 0.0 0 0 883.15 350.88
  Q 886.75 350.78 902.69 350.80"
/>
</g>
<path fill="#000000" d="
  M 1664.00 0.00
  L 1664.00 640.00
  L 0.00 640.00
  L 0.00 0.00
  L 1664.00 0.00
  Z
  M 277.47 266.00
  Q 277.92 260.19 278.91 251.40
  Q 279.46 246.60 293.35 115.81
  C 293.79 111.64 294.93 105.16 293.29 102.46
  C 289.81 96.74 283.12 100.58 280.35 104.86
  Q 274.55 113.79 269.61 120.37
  Q 267.86 122.70 239.47 163.45
  Q 153.02 287.50 116.62 340.12
  Q 105.14 356.71 101.41 361.96
  Q 98.82 365.60 98.92 368.68
  Q 99.09 374.17 103.19 376.52
  Q 105.25 377.70 112.23 377.67
  Q 145.27 377.53 239.03 377.61
  A 0.33 0.32 3.1 0 1 239.36 377.97
  Q 231.35 457.26 225.19 519.51
  Q 224.49 526.58 223.73 532.26
  C 222.63 540.45 232.39 545.35 237.25 538.25
  C 241.97 531.38 244.82 526.83 249.10 520.76
  Q 252.57 515.84 282.58 472.55
  Q 405.51 295.23 414.57 282.31
  C 418.21 277.12 418.52 269.23 411.17 267.12
  Q 409.34 266.59 405.88 266.60
  Q 375.09 266.68 278.04 266.61
  A 0.57 0.56 2.3 0 1 277.47 266.00
  Z
  M 579.61 313.61
  L 579.61 263.74
  A 0.33 0.32 90.0 0 0 579.29 263.41
  L 546.73 263.41
  A 0.66 0.65 -90.0 0 0 546.08 264.07
  L 546.08 419.61
  A 0.32 0.32 0.0 0 0 546.40 419.93
  L 579.08 419.93
  A 0.47 0.47 0.0 0 0 579.55 419.46
  Q 579.59 366.04 579.59 360.88
  C 579.61 350.32 582.71 338.83 593.93 336.14
  C 602.72 334.04 610.63 338.14 612.87 347.06
  Q 614.45 353.37 614.47 356.51
  Q 614.63 379.25 614.50 419.59
  A 0.40 0.40 0.0 0 0 614.90 419.99
  L 647.58 419.99
  A 0.43 0.42 90.0 0 0 648.00 419.56
  Q 648.02 385.84 648.07 359.50
  C 648.09 346.66 647.35 333.63 641.28 322.44
  Q 632.16 305.61 613.01 303.40
  Q 593.60 301.16 580.11 313.83
  A 0.30 0.30 0.0 0 1 579.61 313.61
  Z
  M 1466.53 313.69
  L 1466.52 263.78
  A 0.33 0.32 90.0 0 0 1466.20 263.45
  L 1433.61 263.46
  A 0.66 0.65 90.0 0 0 1432.96 264.12
  L 1432.98 419.78
  A 0.32 0.32 0.0 0 0 1433.30 420.10
  L 1466.01 420.10
  A 0.47 0.47 0.0 0 0 1466.48 419.63
  Q 1466.51 366.17 1466.51 361.00
  C 1466.53 350.43 1469.63 338.93 1480.86 336.24
  C 1489.66 334.14 1497.58 338.24 1499.82 347.17
  Q 1501.40 353.48 1501.42 356.62
  Q 1501.58 379.38 1501.46 419.76
  A 0.40 0.40 0.0 0 0 1501.86 420.16
  L 1534.57 420.15
  A 0.43 0.42 90.0 0 0 1534.99 419.72
  Q 1535.00 385.97 1535.05 359.61
  C 1535.07 346.76 1534.32 333.72 1528.25 322.52
  Q 1519.12 305.68 1499.95 303.47
  Q 1480.53 301.23 1467.03 313.91
  A 0.30 0.30 0.0 0 1 1466.53 313.69
  Z
  M 434.16 374.13
  L 423.57 403.56
  A 0.60 0.58 33.0 0 0 423.71 404.18
  Q 425.85 406.32 430.12 409.13
  Q 444.35 418.50 460.85 421.17
  C 472.22 423.01 484.98 423.01 496.47 420.21
  C 516.48 415.34 530.80 399.85 532.39 378.94
  C 533.48 364.55 529.68 351.21 518.40 341.93
  C 512.53 337.09 504.41 333.81 496.91 331.61
  Q 487.18 328.74 476.92 325.81
  C 470.19 323.88 462.13 321.11 460.93 313.40
  C 459.56 304.61 469.02 299.51 476.28 298.93
  C 491.17 297.75 503.22 302.49 515.77 310.55
  A 0.43 0.42 26.3 0 0 516.40 310.34
  L 527.20 280.31
  A 0.56 0.56 0.0 0 0 527.02 279.68
  Q 514.98 270.67 496.99 267.54
  C 481.04 264.77 462.67 265.78 448.58 273.92
  C 434.52 282.04 426.75 295.95 426.30 312.18
  C 425.88 327.25 430.08 340.52 443.16 349.00
  Q 449.01 352.79 453.68 354.54
  Q 465.01 358.78 480.93 362.92
  C 486.93 364.48 496.61 368.01 497.62 374.95
  C 500.54 395.10 468.28 390.36 458.01 386.72
  Q 445.13 382.16 434.87 373.93
  A 0.45 0.45 0.0 0 0 434.16 374.13
  Z
  M 1052.33 404.85
  A 0.31 0.31 0.0 0 0 1052.61 404.68
  L 1084.51 341.08
  A 0.31 0.31 0.0 0 1 1085.10 341.22
  L 1085.10 419.75
  A 0.31 0.31 0.0 0 0 1085.41 420.06
  L 1117.66 420.06
  A 0.31 0.31 0.0 0 0 1117.97 419.75
  L 1117.97 270.70
  A 0.31 0.31 0.0 0 0 1117.66 270.39
  L 1087.83 270.39
  A 0.31 0.31 0.0 0 0 1087.55 270.56
  L 1044.65 356.06
  A 0.31 0.31 0.0 0 1 1044.10 356.07
  L 1000.38 270.58
  A 0.31 0.31 0.0 0 0 1000.10 270.41
  L 970.46 270.41
  A 0.31 0.31 0.0 0 0 970.15 270.72
  L 970.15 419.72
  A 0.31 0.31 0.0 0 0 970.46 420.03
  L 1002.52 420.03
  A 0.31 0.31 0.0 0 0 1002.83 419.72
  L 1002.83 342.89
  A 0.31 0.31 0.0 0 1 1003.42 342.75
  L 1035.09 404.68
  A 0.31 0.31 0.0 0 0 1035.37 404.85
  L 1052.33 404.85
  Z
  M 1239.12 308.68
  L 1239.12 336.36
  A 0.48 0.48 0.0 0 0 1239.60 336.84
  L 1253.04 336.84
  A 0.82 0.82 0.0 0 1 1253.86 337.66
  Q 1253.60 374.04 1253.83 380.50
  Q 1254.04 386.43 1255.05 391.71
  C 1257.16 402.81 1264.02 414.30 1274.72 418.51
  Q 1292.13 425.36 1309.78 418.74
  Q 1313.87 417.21 1316.13 415.40
  A 1.37 1.36 -27.5 0 0 1316.59 413.96
  L 1309.22 388.00
  A 0.52 0.52 0.0 0 0 1308.40 387.73
  Q 1303.02 391.91 1295.99 390.72
  C 1290.20 389.74 1287.78 383.72 1287.64 378.75
  Q 1287.41 370.76 1287.58 337.41
  A 0.60 0.59 0.0 0 1 1288.18 336.82
  L 1309.64 336.82
  A 0.55 0.55 0.0 0 0 1310.19 336.27
  L 1310.19 308.50
  A 0.63 0.63 0.0 0 0 1309.56 307.87
  L 1288.13 307.87
  A 0.62 0.62 0.0 0 1 1287.51 307.25
  L 1287.51 278.30
  A 0.65 0.65 0.0 0 0 1286.86 277.65
  L 1254.42 277.65
  A 0.60 0.60 0.0 0 0 1253.82 278.25
  L 1253.82 307.26
  A 0.68 0.68 0.0 0 1 1253.14 307.94
  L 1239.86 307.94
  A 0.74 0.74 0.0 0 0 1239.12 308.68
  Z
  M 728.50 408.52
  L 728.50 419.25
  A 0.74 0.73 0.0 0 0 729.24 419.98
  L 759.28 419.98
  A 0.32 0.32 0.0 0 0 759.60 419.66
  Q 759.53 396.27 759.58 358.50
  C 759.60 338.26 755.92 315.95 733.85 307.38
  C 712.54 299.09 686.28 302.68 667.65 316.06
  A 1.30 1.30 0.0 0 0 667.21 317.64
  L 677.56 341.48
  A 0.65 0.65 0.0 0 0 678.53 341.75
  C 686.55 336.01 696.40 332.20 706.49 332.13
  C 715.66 332.07 722.43 335.94 724.94 344.76
  Q 725.70 347.44 725.65 350.05
  A 0.57 0.56 -89.0 0 1 725.08 350.61
  Q 705.58 350.34 699.14 350.87
  C 681.00 352.34 665.15 360.61 662.60 380.23
  C 658.93 408.43 682.07 426.68 708.91 420.99
  Q 721.35 418.35 727.93 408.35
  A 0.31 0.31 0.0 0 1 728.50 408.52
  Z
  M 1199.28 408.29
  L 1199.28 419.38
  A 0.69 0.68 90.0 0 0 1199.96 420.07
  L 1229.36 420.07
  A 0.34 0.34 0.0 0 0 1229.70 419.73
  Q 1229.73 392.96 1229.69 353.51
  C 1229.67 338.24 1225.48 321.91 1213.31 312.44
  C 1205.21 306.13 1193.89 303.40 1183.25 303.00
  C 1167.27 302.41 1150.55 306.64 1137.84 316.27
  A 0.95 0.95 0.0 0 0 1137.54 317.40
  L 1148.15 341.83
  A 0.47 0.46 -29.8 0 0 1148.86 342.02
  Q 1156.17 336.50 1165.02 333.81
  C 1171.27 331.92 1181.46 330.83 1187.27 334.24
  C 1192.96 337.57 1195.99 343.46 1195.96 350.18
  A 0.58 0.57 2.7 0 1 1195.33 350.75
  Q 1192.45 350.44 1174.99 350.66
  C 1158.92 350.86 1142.05 355.66 1135.43 371.61
  C 1132.07 379.69 1132.03 389.74 1134.63 397.87
  C 1141.04 417.89 1160.93 425.17 1180.38 420.84
  Q 1192.19 418.21 1198.76 408.13
  A 0.29 0.28 61.8 0 1 1199.28 408.29
  Z
  M 1394.77 375.35
  Q 1394.13 377.65 1392.13 380.88
  C 1382.28 396.75 1361.23 391.85 1355.90 375.18
  Q 1353.22 366.77 1354.22 357.00
  C 1356.78 332.05 1383.54 324.61 1394.98 348.74
  A 0.41 0.40 -28.3 0 0 1395.56 348.91
  L 1420.77 333.66
  A 0.63 0.63 0.0 0 0 1421.02 332.86
  Q 1418.75 327.72 1415.22 322.53
  C 1396.48 294.94 1351.74 297.78 1332.81 323.25
  C 1318.90 341.96 1316.80 366.15 1324.88 387.60
  C 1331.24 404.49 1345.06 416.90 1363.16 420.70
  C 1378.40 423.89 1394.04 421.73 1406.22 411.70
  Q 1416.81 402.98 1421.96 389.99
  A 0.43 0.43 0.0 0 0 1421.76 389.45
  L 1395.38 375.09
  A 0.42 0.42 0.0 0 0 1394.77 375.35
  Z
  M 811.04 317.85
  L 811.04 305.81
  A 0.54 0.54 0.0 0 0 810.50 305.27
  L 779.71 305.27
  A 0.35 0.35 0.0 0 0 779.36 305.62
  L 779.36 419.58
  A 0.46 0.46 0.0 0 0 779.82 420.04
  L 812.17 420.04
  A 0.52 0.51 -0.0 0 0 812.69 419.53
  Q 812.66 392.40 812.75 366.60
  C 812.78 355.06 815.57 342.08 828.34 338.85
  C 833.26 337.60 838.18 338.18 843.25 338.20
  A 0.65 0.65 0.0 0 0 843.90 337.55
  L 843.90 303.97
  A 0.54 0.54 0.0 0 0 843.37 303.43
  C 831.38 303.06 818.39 307.58 811.59 318.02
  A 0.30 0.30 0.0 0 1 811.04 317.85
  Z
  M 882.40 372.51
  L 954.06 372.51
  A 0.45 0.44 2.0 0 0 954.51 372.10
  C 957.07 342.95 946.67 311.28 914.67 304.38
  Q 903.67 302.02 892.56 304.14
  C 869.57 308.52 855.09 325.83 850.72 348.23
  C 842.43 390.63 868.77 426.02 913.49 421.64
  Q 935.07 419.52 947.92 402.38
  A 1.03 1.02 40.9 0 0 947.82 401.04
  Q 937.78 391.04 930.09 381.31
  A 0.37 0.37 0.0 0 0 929.52 381.30
  Q 917.45 395.31 898.95 390.81
  C 890.23 388.69 884.39 381.44 882.06 372.96
  A 0.35 0.35 0.0 0 1 882.40 372.51
  Z"
/>
<path fill="#ffffff" d="
  M 278.04 266.61
  Q 375.09 266.68 405.88 266.60
  Q 409.34 266.59 411.17 267.12
  C 418.52 269.23 418.21 277.12 414.57 282.31
  Q 405.51 295.23 282.58 472.55
  Q 252.57 515.84 249.10 520.76
  C 244.82 526.83 241.97 531.38 237.25 538.25
  C 232.39 545.35 222.63 540.45 223.73 532.26
  Q 224.49 526.58 225.19 519.51
  Q 231.35 457.26 239.36 377.97
  A 0.33 0.32 3.1 0 0 239.03 377.61
  Q 145.27 377.53 112.23 377.67
  Q 105.25 377.70 103.19 376.52
  Q 99.09 374.17 98.92 368.68
  Q 98.82 365.60 101.41 361.96
  Q 105.14 356.71 116.62 340.12
  Q 153.02 287.50 239.47 163.45
  Q 267.86 122.70 269.61 120.37
  Q 274.55 113.79 280.35 104.86
  C 283.12 100.58 289.81 96.74 293.29 102.46
  C 294.93 105.16 293.79 111.64 293.35 115.81
  Q 279.46 246.60 278.91 251.40
  Q 277.92 260.19 277.47 266.00
  A 0.57 0.56 2.3 0 0 278.04 266.61
  Z
  M 267.03 437.21
  Q 267.06 437.20 267.11 437.19
  A 0.17 0.15 3.2 0 0 267.21 437.11
  Q 275.41 424.53 283.11 413.36
  Q 327.59 348.86 330.45 344.70
  Q 346.05 322.06 359.40 303.05
  A 0.27 0.27 0.0 0 0 359.18 302.63
  Q 264.35 302.56 254.50 302.61
  Q 245.54 302.66 243.00 296.36
  Q 241.66 293.04 242.72 282.57
  Q 246.97 240.60 250.98 207.80
  A 0.16 0.15 -2.7 0 0 250.79 207.63
  Q 250.48 207.70 250.26 208.01
  Q 203.74 274.57 157.43 340.91
  A 0.19 0.18 16.9 0 0 157.59 341.20
  Q 253.33 341.19 258.39 341.16
  C 266.06 341.11 271.49 340.37 274.44 347.07
  Q 275.71 349.95 274.85 358.09
  Q 270.66 397.47 266.88 437.08
  A 0.12 0.12 0.0 0 0 267.03 437.21
  Z"
/>
<path fill="#000000" d="
  M 267.03 437.21
  A 0.12 0.12 0.0 0 1 266.88 437.08
  Q 270.66 397.47 274.85 358.09
  Q 275.71 349.95 274.44 347.07
  C 271.49 340.37 266.06 341.11 258.39 341.16
  Q 253.33 341.19 157.59 341.20
  A 0.19 0.18 16.9 0 1 157.43 340.91
  Q 203.74 274.57 250.26 208.01
  Q 250.48 207.70 250.79 207.63
  A 0.16 0.15 -2.7 0 1 250.98 207.80
  Q 246.97 240.60 242.72 282.57
  Q 241.66 293.04 243.00 296.36
  Q 245.54 302.66 254.50 302.61
  Q 264.35 302.56 359.18 302.63
  A 0.27 0.27 0.0 0 1 359.40 303.05
  Q 346.05 322.06 330.45 344.70
  Q 327.59 348.86 283.11 413.36
  Q 275.41 424.53 267.21 437.11
  A 0.17 0.15 3.2 0 1 267.11 437.19
  Q 267.06 437.20 267.03 437.21
  Z"
/>
<path fill="#ffffff" d="
  M 580.11 313.83
  Q 593.60 301.16 613.01 303.40
  Q 632.16 305.61 641.28 322.44
  C 647.35 333.63 648.09 346.66 648.07 359.50
  Q 648.02 385.84 648.00 419.56
  A 0.43 0.42 90.0 0 1 647.58 419.99
  L 614.90 419.99
  A 0.40 0.40 0.0 0 1 614.50 419.59
  Q 614.63 379.25 614.47 356.51
  Q 614.45 353.37 612.87 347.06
  C 610.63 338.14 602.72 334.04 593.93 336.14
  C 582.71 338.83 579.61 350.32 579.59 360.88
  Q 579.59 366.04 579.55 419.46
  A 0.47 0.47 0.0 0 1 579.08 419.93
  L 546.40 419.93
  A 0.32 0.32 0.0 0 1 546.08 419.61
  L 546.08 264.07
  A 0.66 0.65 -90.0 0 1 546.73 263.41
  L 579.29 263.41
  A 0.33 0.32 -90.0 0 1 579.61 263.74
  L 579.61 313.61
  A 0.30 0.30 0.0 0 0 580.11 313.83
  Z"
/>
<path fill="#ffffff" d="
  M 1466.53 313.69
  A 0.30 0.30 0.0 0 0 1467.03 313.91
  Q 1480.53 301.23 1499.95 303.47
  Q 1519.12 305.68 1528.25 322.52
  C 1534.32 333.72 1535.07 346.76 1535.05 359.61
  Q 1535.00 385.97 1534.99 419.72
  A 0.43 0.42 90.0 0 1 1534.57 420.15
  L 1501.86 420.16
  A 0.40 0.40 0.0 0 1 1501.46 419.76
  Q 1501.58 379.38 1501.42 356.62
  Q 1501.40 353.48 1499.82 347.17
  C 1497.58 338.24 1489.66 334.14 1480.86 336.24
  C 1469.63 338.93 1466.53 350.43 1466.51 361.00
  Q 1466.51 366.17 1466.48 419.63
  A 0.47 0.47 0.0 0 1 1466.01 420.10
  L 1433.30 420.10
  A 0.32 0.32 0.0 0 1 1432.98 419.78
  L 1432.96 264.12
  A 0.66 0.65 90.0 0 1 1433.61 263.46
  L 1466.20 263.45
  A 0.33 0.32 90.0 0 1 1466.52 263.78
  L 1466.53 313.69
  Z"
/>
<path fill="#ffffff" d="
  M 434.16 374.13
  A 0.45 0.45 0.0 0 1 434.87 373.93
  Q 445.13 382.16 458.01 386.72
  C 468.28 390.36 500.54 395.10 497.62 374.95
  C 496.61 368.01 486.93 364.48 480.93 362.92
  Q 465.01 358.78 453.68 354.54
  Q 449.01 352.79 443.16 349.00
  C 430.08 340.52 425.88 327.25 426.30 312.18
  C 426.75 295.95 434.52 282.04 448.58 273.92
  C 462.67 265.78 481.04 264.77 496.99 267.54
  Q 514.98 270.67 527.02 279.68
  A 0.56 0.56 0.0 0 1 527.20 280.31
  L 516.40 310.34
  A 0.43 0.42 26.3 0 1 515.77 310.55
  C 503.22 302.49 491.17 297.75 476.28 298.93
  C 469.02 299.51 459.56 304.61 460.93 313.40
  C 462.13 321.11 470.19 323.88 476.92 325.81
  Q 487.18 328.74 496.91 331.61
  C 504.41 333.81 512.53 337.09 518.40 341.93
  C 529.68 351.21 533.48 364.55 532.39 378.94
  C 530.80 399.85 516.48 415.34 496.47 420.21
  C 484.98 423.01 472.22 423.01 460.85 421.17
  Q 444.35 418.50 430.12 409.13
  Q 425.85 406.32 423.71 404.18
  A 0.60 0.58 33.0 0 1 423.57 403.56
  L 434.16 374.13
  Z"
/>
<path fill="#ffffff" d="
  M 1052.33 404.85
  L 1035.37 404.85
  A 0.31 0.31 0.0 0 1 1035.09 404.68
  L 1003.42 342.75
  A 0.31 0.31 0.0 0 0 1002.83 342.89
  L 1002.83 419.72
  A 0.31 0.31 0.0 0 1 1002.52 420.03
  L 970.46 420.03
  A 0.31 0.31 0.0 0 1 970.15 419.72
  L 970.15 270.72
  A 0.31 0.31 0.0 0 1 970.46 270.41
  L 1000.10 270.41
  A 0.31 0.31 0.0 0 1 1000.38 270.58
  L 1044.10 356.07
  A 0.31 0.31 0.0 0 0 1044.65 356.06
  L 1087.55 270.56
  A 0.31 0.31 0.0 0 1 1087.83 270.39
  L 1117.66 270.39
  A 0.31 0.31 0.0 0 1 1117.97 270.70
  L 1117.97 419.75
  A 0.31 0.31 0.0 0 1 1117.66 420.06
  L 1085.41 420.06
  A 0.31 0.31 0.0 0 1 1085.10 419.75
  L 1085.10 341.22
  A 0.31 0.31 0.0 0 0 1084.51 341.08
  L 1052.61 404.68
  A 0.31 0.31 0.0 0 1 1052.33 404.85
  Z"
/>
<path fill="#ffffff" d="
  M 1239.86 307.94
  L 1253.14 307.94
  A 0.68 0.68 0.0 0 0 1253.82 307.26
  L 1253.82 278.25
  A 0.60 0.60 0.0 0 1 1254.42 277.65
  L 1286.86 277.65
  A 0.65 0.65 0.0 0 1 1287.51 278.30
  L 1287.51 307.25
  A 0.62 0.62 0.0 0 0 1288.13 307.87
  L 1309.56 307.87
  A 0.63 0.63 0.0 0 1 1310.19 308.50
  L 1310.19 336.27
  A 0.55 0.55 0.0 0 1 1309.64 336.82
  L 1288.18 336.82
  A 0.60 0.59 0.0 0 0 1287.58 337.41
  Q 1287.41 370.76 1287.64 378.75
  C 1287.78 383.72 1290.20 389.74 1295.99 390.72
  Q 1303.02 391.91 1308.40 387.73
  A 0.52 0.52 0.0 0 1 1309.22 388.00
  L 1316.59 413.96
  A 1.37 1.36 -27.5 0 1 1316.13 415.40
  Q 1313.87 417.21 1309.78 418.74
  Q 1292.13 425.36 1274.72 418.51
  C 1264.02 414.30 1257.16 402.81 1255.05 391.71
  Q 1254.04 386.43 1253.83 380.50
  Q 1253.60 374.04 1253.86 337.66
  A 0.82 0.82 0.0 0 0 1253.04 336.84
  L 1239.60 336.84
  A 0.48 0.48 0.0 0 1 1239.12 336.36
  L 1239.12 308.68
  A 0.74 0.74 0.0 0 1 1239.86 307.94
  Z"
/>
<path fill="#ffffff" d="
  M 728.50 408.52
  A 0.31 0.31 0.0 0 0 727.93 408.35
  Q 721.35 418.35 708.91 420.99
  C 682.07 426.68 658.93 408.43 662.60 380.23
  C 665.15 360.61 681.00 352.34 699.14 350.87
  Q 705.58 350.34 725.08 350.61
  A 0.57 0.56 -89.0 0 0 725.65 350.05
  Q 725.70 347.44 724.94 344.76
  C 722.43 335.94 715.66 332.07 706.49 332.13
  C 696.40 332.20 686.55 336.01 678.53 341.75
  A 0.65 0.65 0.0 0 1 677.56 341.48
  L 667.21 317.64
  A 1.30 1.30 0.0 0 1 667.65 316.06
  C 686.28 302.68 712.54 299.09 733.85 307.38
  C 755.92 315.95 759.60 338.26 759.58 358.50
  Q 759.53 396.27 759.60 419.66
  A 0.32 0.32 0.0 0 1 759.28 419.98
  L 729.24 419.98
  A 0.74 0.73 -0.0 0 1 728.50 419.25
  L 728.50 408.52
  Z
  M 725.19 372.26
  Q 710.40 372.01 706.52 372.54
  Q 695.47 374.05 694.99 383.78
  C 694.72 389.12 697.87 394.28 703.02 395.67
  Q 716.57 399.31 724.02 387.38
  C 726.16 383.97 726.06 375.92 725.83 372.87
  A 0.66 0.66 0.0 0 0 725.19 372.26
  Z"
/>
<path fill="#ffffff" d="
  M 1199.28 408.29
  A 0.29 0.28 61.8 0 0 1198.76 408.13
  Q 1192.19 418.21 1180.38 420.84
  C 1160.93 425.17 1141.04 417.89 1134.63 397.87
  C 1132.03 389.74 1132.07 379.69 1135.43 371.61
  C 1142.05 355.66 1158.92 350.86 1174.99 350.66
  Q 1192.45 350.44 1195.33 350.75
  A 0.58 0.57 2.7 0 0 1195.96 350.18
  C 1195.99 343.46 1192.96 337.57 1187.27 334.24
  C 1181.46 330.83 1171.27 331.92 1165.02 333.81
  Q 1156.17 336.50 1148.86 342.02
  A 0.47 0.46 -29.8 0 1 1148.15 341.83
  L 1137.54 317.40
  A 0.95 0.95 0.0 0 1 1137.84 316.27
  C 1150.55 306.64 1167.27 302.41 1183.25 303.00
  C 1193.89 303.40 1205.21 306.13 1213.31 312.44
  C 1225.48 321.91 1229.67 338.24 1229.69 353.51
  Q 1229.73 392.96 1229.70 419.73
  A 0.34 0.34 0.0 0 1 1229.36 420.07
  L 1199.96 420.07
  A 0.69 0.68 -90.0 0 1 1199.28 419.38
  L 1199.28 408.29
  Z
  M 1195.76 372.19
  Q 1180.92 372.02 1177.03 372.58
  Q 1165.96 374.16 1165.53 383.92
  C 1165.29 389.28 1168.48 394.44 1173.65 395.80
  Q 1187.27 399.38 1194.67 387.37
  C 1196.80 383.93 1196.66 375.86 1196.41 372.80
  A 0.67 0.66 88.1 0 0 1195.76 372.19
  Z"
/>
<path fill="#ffffff" d="
  M 1395.38 375.09
  L 1421.76 389.45
  A 0.43 0.43 0.0 0 1 1421.96 389.99
  Q 1416.81 402.98 1406.22 411.70
  C 1394.04 421.73 1378.40 423.89 1363.16 420.70
  C 1345.06 416.90 1331.24 404.49 1324.88 387.60
  C 1316.80 366.15 1318.90 341.96 1332.81 323.25
  C 1351.74 297.78 1396.48 294.94 1415.22 322.53
  Q 1418.75 327.72 1421.02 332.86
  A 0.63 0.63 0.0 0 1 1420.77 333.66
  L 1395.56 348.91
  A 0.41 0.40 -28.3 0 1 1394.98 348.74
  C 1383.54 324.61 1356.78 332.05 1354.22 357.00
  Q 1353.22 366.77 1355.90 375.18
  C 1361.23 391.85 1382.28 396.75 1392.13 380.88
  Q 1394.13 377.65 1394.77 375.35
  A 0.42 0.42 0.0 0 1 1395.38 375.09
  Z"
/>
<path fill="#ffffff" d="
  M 811.04 317.85
  A 0.30 0.30 0.0 0 0 811.59 318.02
  C 818.39 307.58 831.38 303.06 843.37 303.43
  A 0.54 0.54 0.0 0 1 843.90 303.97
  L 843.90 337.55
  A 0.65 0.65 0.0 0 1 843.25 338.20
  C 838.18 338.18 833.26 337.60 828.34 338.85
  C 815.57 342.08 812.78 355.06 812.75 366.60
  Q 812.66 392.40 812.69 419.53
  A 0.52 0.51 -0.0 0 1 812.17 420.04
  L 779.82 420.04
  A 0.46 0.46 0.0 0 1 779.36 419.58
  L 779.36 305.62
  A 0.35 0.35 0.0 0 1 779.71 305.27
  L 810.50 305.27
  A 0.54 0.54 0.0 0 1 811.04 305.81
  L 811.04 317.85
  Z"
/>
<path fill="#ffffff" d="
  M 882.40 372.51
  A 0.35 0.35 0.0 0 0 882.06 372.96
  C 884.39 381.44 890.23 388.69 898.95 390.81
  Q 917.45 395.31 929.52 381.30
  A 0.37 0.37 0.0 0 1 930.09 381.31
  Q 937.78 391.04 947.82 401.04
  A 1.03 1.02 40.9 0 1 947.92 402.38
  Q 935.07 419.52 913.49 421.64
  C 868.77 426.02 842.43 390.63 850.72 348.23
  C 855.09 325.83 869.57 308.52 892.56 304.14
  Q 903.67 302.02 914.67 304.38
  C 946.67 311.28 957.07 342.95 954.51 372.10
  A 0.45 0.44 2.0 0 1 954.06 372.51
  L 882.40 372.51
  Z
  M 902.69 350.80
  Q 918.64 350.82 922.24 350.93
  A 0.51 0.51 0.0 0 0 922.76 350.35
  C 921.32 339.75 914.01 331.24 902.72 331.23
  C 891.43 331.21 884.10 339.70 882.63 350.29
  A 0.51 0.51 0.0 0 0 883.15 350.88
  Q 886.75 350.78 902.69 350.80
  Z"
/>
<path fill="#000000" d="
  M 902.72 331.23
  C 914.01 331.24 921.32 339.75 922.76 350.35
  A 0.51 0.51 0.0 0 1 922.24 350.93
  Q 918.64 350.82 902.69 350.80
  Q 886.75 350.78 883.15 350.88
  A 0.51 0.51 0.0 0 1 882.63 350.29
  C 884.10 339.70 891.43 331.21 902.72 331.23
  Z"
/>
<path fill="#000000" d="
  M 1196.41 372.80
  C 1196.66 375.86 1196.80 383.93 1194.67 387.37
  Q 1187.27 399.38 1173.65 395.80
  C 1168.48 394.44 1165.29 389.28 1165.53 383.92
  Q 1165.96 374.16 1177.03 372.58
  Q 1180.92 372.02 1195.76 372.19
  A 0.67 0.66 88.1 0 1 1196.41 372.80
  Z"
/>
<path fill="#000000" d="
  M 725.19 372.26
  A 0.66 0.66 0.0 0 1 725.83 372.87
  C 726.06 375.92 726.16 383.97 724.02 387.38
  Q 716.57 399.31 703.02 395.67
  C 697.87 394.28 694.72 389.12 694.99 383.78
  Q 695.47 374.05 706.52 372.54
  Q 710.40 372.01 725.19 372.26
  Z"
/>
</svg>
