<?xml version="1.0" encoding="UTF-8" standalone="no"?>
<!DOCTYPE svg PUBLIC "-//W3C//DTD SVG 1.1//EN" "http://www.w3.org/Graphics/SVG/1.1/DTD/svg11.dtd">
<svg xmlns="http://www.w3.org/2000/svg" version="1.1" viewBox="0.00 0.00 1024.00 1024.00">
<g stroke-width="2.00" fill="none" stroke-linecap="butt">
<path stroke="#808080" vector-effect="non-scaling-stroke" d="
  M 487.80 580.21
  C 484.88 604.38 482.85 625.31 479.85 648.94
  C 477.06 670.82 475.46 688.70 472.71 711.03
  Q 469.67 735.78 466.44 765.29
  C 465.74 771.71 466.76 780.05 475.40 778.32
  Q 479.01 777.60 480.93 775.18
  Q 488.46 765.68 498.81 752.33
  C 506.69 742.16 512.12 735.58 518.37 727.53
  Q 548.00 689.32 576.96 652.52
  Q 599.79 623.51 622.27 595.02
  Q 645.82 565.20 669.39 535.10
  Q 693.43 504.40 725.61 463.12
  C 728.00 460.06 730.61 456.53 730.22 452.93
  C 729.39 445.38 724.13 445.18 717.20 445.18
  Q 640.87 445.27 538.32 445.18
  A 0.76 0.75 -86.9 0 1 537.57 444.34
  Q 548.38 347.96 558.66 255.51
  Q 559.48 248.17 554.08 246.31
  C 549.77 244.82 546.56 247.49 543.87 250.87
  Q 540.11 255.60 518.42 283.16
  Q 421.17 406.70 389.10 447.34
  C 345.17 502.99 315.68 540.31 301.72 558.20
  Q 296.86 564.41 295.94 565.69
  C 291.33 572.13 295.41 579.81 303.25 579.81
  Q 405.06 579.75 487.44 579.80
  A 0.37 0.36 -86.5 0 1 487.80 580.21"
/>
<path stroke="#808080" vector-effect="non-scaling-stroke" d="
  M 650.90 487.93
  Q 594.34 487.86 509.05 487.96
  Q 499.72 487.97 496.78 486.41
  Q 490.65 483.16 491.39 474.45
  Q 492.32 463.44 495.49 438.40
  C 498.50 414.58 500.61 393.12 503.10 372.78
  A 0.31 0.30 67.8 0 0 502.56 372.55
  L 373.86 536.38
  A 0.42 0.41 19.0 0 0 374.19 537.05
  Q 502.80 537.19 515.11 536.94
  Q 525.60 536.74 528.63 538.58
  Q 534.75 542.31 533.84 551.05
  Q 530.62 582.07 523.07 650.19
  A 0.44 0.44 0.0 0 0 523.85 650.51
  L 651.15 488.45
  A 0.32 0.32 0.0 0 0 650.90 487.93"
/>
</g>
<path fill="#000000" d="
  M 1024.00 0.00
  L 1024.00 1024.00
  L 0.00 1024.00
  L 0.00 0.00
  L 1024.00 0.00
  Z
  M 487.80 580.21
  C 484.88 604.38 482.85 625.31 479.85 648.94
  C 477.06 670.82 475.46 688.70 472.71 711.03
  Q 469.67 735.78 466.44 765.29
  C 465.74 771.71 466.76 780.05 475.40 778.32
  Q 479.01 777.60 480.93 775.18
  Q 488.46 765.68 498.81 752.33
  C 506.69 742.16 512.12 735.58 518.37 727.53
  Q 548.00 689.32 576.96 652.52
  Q 599.79 623.51 622.27 595.02
  Q 645.82 565.20 669.39 535.10
  Q 693.43 504.40 725.61 463.12
  C 728.00 460.06 730.61 456.53 730.22 452.93
  C 729.39 445.38 724.13 445.18 717.20 445.18
  Q 640.87 445.27 538.32 445.18
  A 0.76 0.75 -86.9 0 1 537.57 444.34
  Q 548.38 347.96 558.66 255.51
  Q 559.48 248.17 554.08 246.31
  C 549.77 244.82 546.56 247.49 543.87 250.87
  Q 540.11 255.60 518.42 283.16
  Q 421.17 406.70 389.10 447.34
  C 345.17 502.99 315.68 540.31 301.72 558.20
  Q 296.86 564.41 295.94 565.69
  C 291.33 572.13 295.41 579.81 303.25 579.81
  Q 405.06 579.75 487.44 579.80
  A 0.37 0.36 -86.5 0 1 487.80 580.21
  Z"
/>
<path fill="#ffffff" d="
  M 487.80 580.21
  A 0.37 0.36 -86.5 0 0 487.44 579.80
  Q 405.06 579.75 303.25 579.81
  C 295.41 579.81 291.33 572.13 295.94 565.69
  Q 296.86 564.41 301.72 558.20
  C 315.68 540.31 345.17 502.99 389.10 447.34
  Q 421.17 406.70 518.42 283.16
  Q 540.11 255.60 543.87 250.87
  C 546.56 247.49 549.77 244.82 554.08 246.31
  Q 559.48 248.17 558.66 255.51
  Q 548.38 347.96 537.57 444.34
  A 0.76 0.75 -86.9 0 0 538.32 445.18
  Q 640.87 445.27 717.20 445.18
  C 724.13 445.18 729.39 445.38 730.22 452.93
  C 730.61 456.53 728.00 460.06 725.61 463.12
  Q 693.43 504.40 669.39 535.10
  Q 645.82 565.20 622.27 595.02
  Q 599.79 623.51 576.96 652.52
  Q 548.00 689.32 518.37 727.53
  C 512.12 735.58 506.69 742.16 498.81 752.33
  Q 488.46 765.68 480.93 775.18
  Q 479.01 777.60 475.40 778.32
  C 466.76 780.05 465.74 771.71 466.44 765.29
  Q 469.67 735.78 472.71 711.03
  C 475.46 688.70 477.06 670.82 479.85 648.94
  C 482.85 625.31 484.88 604.38 487.80 580.21
  Z
  M 650.90 487.93
  Q 594.34 487.86 509.05 487.96
  Q 499.72 487.97 496.78 486.41
  Q 490.65 483.16 491.39 474.45
  Q 492.32 463.44 495.49 438.40
  C 498.50 414.58 500.61 393.12 503.10 372.78
  A 0.31 0.30 67.8 0 0 502.56 372.55
  L 373.86 536.38
  A 0.42 0.41 19.0 0 0 374.19 537.05
  Q 502.80 537.19 515.11 536.94
  Q 525.60 536.74 528.63 538.58
  Q 534.75 542.31 533.84 551.05
  Q 530.62 582.07 523.07 650.19
  A 0.44 0.44 0.0 0 0 523.85 650.51
  L 651.15 488.45
  A 0.32 0.32 0.0 0 0 650.90 487.93
  Z"
/>
<path fill="#000000" d="
  M 650.90 487.93
  A 0.32 0.32 0.0 0 1 651.15 488.45
  L 523.85 650.51
  A 0.44 0.44 0.0 0 1 523.07 650.19
  Q 530.62 582.07 533.84 551.05
  Q 534.75 542.31 528.63 538.58
  Q 525.60 536.74 515.11 536.94
  Q 502.80 537.19 374.19 537.05
  A 0.42 0.41 19.0 0 1 373.86 536.38
  L 502.56 372.55
  A 0.31 0.30 67.8 0 1 503.10 372.78
  C 500.61 393.12 498.50 414.58 495.49 438.40
  Q 492.32 463.44 491.39 474.45
  Q 490.65 483.16 496.78 486.41
  Q 499.72 487.97 509.05 487.96
  Q 594.34 487.86 650.90 487.93
  Z"
/>
</svg>
