<svg id="football-badge-svg" viewBox="0 0 1024 1024" xmlns="http://www.w3.org/2000/svg">
<!--DEFINITIONS-->
  <defs>
<!--TOP TEXT ARC-->
    <path id="textPathRed" d="M 66,512 A 446,446 0 0 1 958,512"/>
<!--BOTTOM TEXT ARC (NEW)-->
    <path id="textPathBottom" d="M 66,512 A 446,446 0 0 0 958,512"/>
    <radialGradient id="badgeReflect" cx="50%" cy="30%" r="50%">
      <stop offset="0%" stop-color="white"/>
      <stop offset="100%" stop-color="transparent"/>
    </radialGradient>
  </defs>
<!--1. OUTER RING-->
  <circle cx="512" cy="512" r="512" fill="#0021A5"/>
<!--2. INNER RING-->
  <circle cx="512" cy="512" r="380" fill="none" stroke="#FFFFFF" stroke-width="22"/>
<!--3. BLACK CORE-->
  <circle cx="512" cy="512" r="369" fill="#000000"/>
<!--4. FOOTBALL (UNCHANGED)-->
  <g transform="translate(512,512) scale(3.8)">
    <g transform="translate(-97,-97)">
      <circle cx="97" cy="97" r="97" fill="#000000"/>
      <path fill="#FFFFFF" d="m 94,9.2 a 88,88 0 0 0 -55,21.8 l 27,0 28,-14.4 0,-7.4 z
           m 6,0 0,7.4 28,14.4 27,0 a 88,88 0 0 0 -55,-21.8 z
           m -67.2,27.8 a 88,88 0 0 0 -20,34.2 l 16,27.6 23,-3.6
           21,-36.2 -8.4,-22 -31.6,0 z
           m 96.8,0 -8.4,22 21,36.2 23,3.6 15.8,-27.4
           a 88,88 0 0 0 -19.8,-34.4 l -31.6,0 z
           m -50,26 -20.2,35.2 17.8,30.8 39.6,0
           17.8,-30.8 -20.2,-35.2 -34.8,0 z
           m -68.8,16.6 a 88,88 0 0 0 -1.8,17.4
           88,88 0 0 0 10.4,41.4 l 7.4,-4.4
           -1.4,-29 -14.6,-25.4 z
           m 172.4,0.2 -14.6,25.2 -1.4,29
           7.4,4.4 a 88,88 0 0 0 10.4,-41.4
           88,88 0 0 0 -1.8,-17.2 z
           m -106,57.2 -15.4,19 15.4,26.6
           a 88,88 0 0 0 19.8,2.4
           88,88 0 0 0 19.8,-2.4
           l 15.4,-26.6 -15.4,-19 -39.6,0 z
           m -47.8,2.6 -7,4
           A 88,88 0 0 0 68.8,180.4
           l -14,-24.6 -25.4,-16.2 z
           m 135.2,0 -25.4,16.2 -14,24.4
           a 88,88 0 0 0 46.4,-36.6 l -7,-4 z"/>
    </g>
  </g>
<!--5. SHAREMATCH BOLT (UNCHANGED – FULL PATH)-->
<g transform="translate(512,512) scale(0.85,1.15) translate(-512,-512)">
    <path
      fill="#035531"
      d="M 537.56 444.67 A 0.22 0.22 0.0 0 0 537.78 444.92
         Q 617.34 444.87 717.35 444.88 C 722.20 444.88
         727.04 444.74 729.31 449.11 C 732.26 454.79
         728.91 458.82 725.35 463.36
         C 648.18 561.91 556.92 677.88 480.98 775.23
         C 477.36 779.87 469.98 780.84 467.12 774.79
         C 465.99 772.40 465.89 768.32 466.31 765.40
         C 467.64 756.27 468.30 746.99 469.56 736.21
         Q 478.98 656.06 487.15 584.19
         Q 487.40 581.95 487.33 580.40
         A 0.52 0.51 -0.6 0 0 486.82 579.91
         Q 312.38 579.87 306.71 580.00
         Q 299.94 580.16 297.59 578.54
         Q 293.45 575.68 294.03 569.55
         Q 294.23 567.47 297.30 563.57
         Q 324.33 529.26 333.49 517.74
         Q 346.83 500.95 364.64 478.36
         Q 411.49 418.92 444.34 376.83
         C 446.77 373.72 449.17 371.20 450.92 368.76
         C 456.36 361.15 464.06 352.20 470.38 344.08
         C 495.25 312.14 523.41 277.01 540.12 255.37
         C 543.28 251.28 545.61 247.62 549.40 246.22
         Q 554.42 244.38 557.82 249.16
         A 3.31 3.18 -68.8 0 1 558.36 250.45
         Q 558.90 253.56 558.71 255.25
         C 556.28 276.65 554.88 291.85 552.23 313.23
         C 549.58 334.68 547.56 355.00 544.53 380.90
         Q 541.13 410.01 537.56 444.67 Z"
    />

    <path
      fill="#035531"
      d="M 522.89 650.90 A 0.22 0.22 0.0 0 0 523.28 651.08
         L 650.94 488.64 A 0.39 0.39 0.0 0 0 650.63 488.01
         Q 523.54 488.05 505.00 488.03
         C 497.28 488.02 491.26 484.63 491.30 476.49
         Q 491.32 472.66 491.96 467.50
         Q 497.84 420.26 502.98 372.23
         A 0.10 0.10 0.0 0 0 502.80 372.16
         L 373.73 536.39
         A 0.30 0.30 0.0 0 0 373.97 536.87
         Q 427.29 536.85 518.32 536.83
         Q 525.24 536.83 527.72 537.98
         C 532.57 540.22 534.68 546.11 534.11 551.28
         C 530.91 580.31 526.62 614.33 523.60 646.77
         Q 523.42 648.67 522.89 650.90 Z"
    />
  </g>
<!--6. TOP TEXT (ASSET INITIALS)-->
  <text fill="#FFFFFF" font-size="110" font-weight="900" font-family="Inter, system-ui, sans-serif" letter-spacing="12">
    <textPath href="#textPathRed" startOffset="50%" text-anchor="middle" dominant-baseline="middle">
      SEM
    </textPath>
  </text>
<!--7. BOTTOM TEXT (INDEX CODE – NEW)-->
  <text fill="#FFFFFF" font-size="110" font-weight="900" font-family="Inter, system-ui, sans-serif" letter-spacing="10">
    <textPath href="#textPathBottom" startOffset="50%" text-anchor="middle" dominant-baseline="middle">
      ISL
    </textPath>
  </text>
<!--8. GLOSS-->
  <circle cx="512" cy="512" r="512" fill="url(#badgeReflect)" opacity="0.04" pointer-events="none"/>
</svg>
