<svg id="base-avatar-svg" viewBox="0 0 1024 1024" xmlns="http://www.w3.org/2000/svg">
  <!-- DEFINITIONS -->
  <defs>
    <path id="textPathRed" d="M 66,512 A 446,446 0 0 1 958,512"/>
    <path id="textPathBottom" d="M 66,512 A 446,446 0 0 0 958,512"/>
    <radialGradient id="badgeReflect" cx="50%" cy="30%" r="50%">
      <stop offset="0%" stop-color="white"/>
      <stop offset="100%" stop-color="transparent"/>
    </radialGradient>
  </defs>

  <!-- 1. OUTER RING -->
  <circle cx="512" cy="512" r="512" fill="#003895"/>

  <!-- 2. INNER RING -->
  <circle
    cx="512"
    cy="512"
    r="380"
    fill="none"
    stroke="#FCD116"
    stroke-width="22"
  />

  <!-- 3. BLACK CORE -->
  <circle cx="512" cy="512" r="369" fill="#000000"/>

  <!-- 4. CENTER ICON (DYNAMIC) -->
  <svg viewBox="0 0 1024 1024" xmlns="http://www.w3.org/2000/svg"><g transform="translate(512,512) scale(1.45) translate(-232.5, -232.5)"><circle cx="232.5" cy="232.5" r="230" fill="#FFFFFF"></circle><g transform="translate(0, -540.36)"><g fill="#000000"><rect x="287.32" y="734.124" transform="matrix(-0.7071 -0.7071 0.7071 -0.7071 -28.2602 1491.7417)" width="15" height="35.2"></rect><rect x="95.693" y="842.467" transform="matrix(-0.7071 -0.7071 0.7071 -0.7071 -431.998 1541.1948)" width="15" height="35.2"></rect><rect x="132.844" y="804.948" transform="matrix(0.7071 0.7071 -0.7071 0.7071 622.735 141.6802)" width="15" height="35.2"></rect><rect x="207.692" y="730.454" transform="matrix(0.7071 0.7071 -0.7071 0.7071 591.9841 66.9372)" width="15" height="35.2"></rect><rect x="170.342" y="767.733" transform="matrix(0.7071 0.7071 -0.7071 0.7071 607.4029 104.265)" width="15" height="35.2"></rect><rect x="244.844" y="692.963" transform="matrix(0.7071 0.7071 -0.7071 0.7071 576.3555 29.6861)" width="15" height="35.2"></rect><rect x="282.335" y="655.712" transform="matrix(0.7071 0.7071 -0.7071 0.7071 560.9943 -7.7354)" width="15" height="35.2"></rect><rect x="319.557" y="618.292" transform="matrix(0.7071 0.7071 -0.7071 0.7071 545.4363 -45.0157)" width="15" height="35.2"></rect><rect x="137.964" y="883.536" transform="matrix(-0.7071 -0.7071 0.7071 -0.7071 -388.8769 1641.194)" width="15" height="35.2"></rect><rect x="175.328" y="846.13" transform="matrix(-0.7071 -0.7071 0.7071 -0.7071 -298.643 1603.7579)" width="15" height="35.2"></rect><rect x="249.97" y="771.53" transform="matrix(-0.7071 -0.7071 0.7071 -0.7071 -118.47 1529.1877)" width="15" height="35.2"></rect><rect x="212.677" y="808.865" transform="matrix(-0.7071 -0.7071 0.7071 -0.7071 -208.5332 1566.5532)" width="15" height="35.2"></rect><rect x="324.683" y="696.859" transform="matrix(-0.7071 -0.7071 0.7071 -0.7071 61.8737 1454.547)" width="15" height="35.2"></rect><rect x="361.962" y="659.524" transform="matrix(-0.7071 -0.7071 0.7071 -0.7071 151.9128 1417.1716)" width="15" height="35.2"></rect><path d="M396.7,608.16c-43.9-43.7-102.2-67.8-164.2-67.8c-62.5,0-120.9,24.1-164.7,67.8C24.1,651.86,0,710.36,0,772.86 c0,62,24.1,120.3,67.8,164.2c43.9,44,102.4,68.3,164.7,68.3c61.9,0,120.2-24.3,164.2-68.3s68.3-102.4,68.3-164.2 C465,710.56,440.7,652.06,396.7,608.16z M15,772.86c0-119.9,97.6-217.5,217.5-217.5c35.5,0,69,8.5,98.6,23.7L38.7,871.46 C23.6,841.86,15,808.36,15,772.86z M106.8,950.26l19-19l-10.6-10.6l-20.4,20.4c-11.4-9.3-21.8-19.8-31.1-31.1l19.7-19.7 l-10.6-10.6l-18.3,18.3c-2.9-4.1-5.7-8.4-8.3-12.8l298.5-298.5c4.4,2.6,8.6,5.4,12.8,8.3l-10.8,10.8l10.6,10.6l12.3-12.3 c11.3,9.2,21.6,19.4,30.8,30.6l-11.6,12.3l10.9,10.3l9.9-10.5c2.9,4,5.6,8.1,8.2,12.3l-299.1,299.1 C114.6,955.66,110.6,953.06,106.8,950.26z M232.5,990.36c-36.1,0-70.2-8.9-100.2-24.5l293.2-293.2c15.7,30,24.5,64.1,24.5,100.2 C450,892.76,352.4,990.36,232.5,990.36z"></path></g></g></g></svg>

  <!-- 5. SHAREMATCH BOLT (UNCHANGED) -->
<g transform="translate(512,512) scale(0.85,0.9) translate(-512,-512)">
    <path
      fill="#035531"
      d="M 537.56 444.67 A 0.22 0.22 0.0 0 0 537.78 444.92
         Q 617.34 444.87 717.35 444.88 C 722.20 444.88
         727.04 444.74 729.31 449.11 C 732.26 454.79
         728.91 458.82 725.35 463.36
         C 648.18 561.91 556.92 677.88 480.98 775.23
         C 477.36 779.87 469.98 780.84 467.12 774.79
         C 465.99 772.40 465.89 768.32 466.31 765.40
         C 467.64 756.27 468.30 746.99 469.56 736.21
         Q 478.98 656.06 487.15 584.19
         Q 487.40 581.95 487.33 580.40
         A 0.52 0.51 -0.6 0 0 486.82 579.91
         Q 312.38 579.87 306.71 580.00
         Q 299.94 580.16 297.59 578.54
         Q 293.45 575.68 294.03 569.55
         Q 294.23 567.47 297.30 563.57
         Q 324.33 529.26 333.49 517.74
         Q 346.83 500.95 364.64 478.36
         Q 411.49 418.92 444.34 376.83
         C 446.77 373.72 449.17 371.20 450.92 368.76
         C 456.36 361.15 464.06 352.20 470.38 344.08
         C 495.25 312.14 523.41 277.01 540.12 255.37
         C 543.28 251.28 545.61 247.62 549.40 246.22
         Q 554.42 244.38 557.82 249.16
         A 3.31 3.18 -68.8 0 1 558.36 250.45
         Q 558.90 253.56 558.71 255.25
         C 556.28 276.65 554.88 291.85 552.23 313.23
         C 549.58 334.68 547.56 355.00 544.53 380.90
         Q 541.13 410.01 537.56 444.67 Z"
    />

    <path
      fill="#035531"
      d="M 522.89 650.90 A 0.22 0.22 0.0 0 0 523.28 651.08
         L 650.94 488.64 A 0.39 0.39 0.0 0 0 650.63 488.01
         Q 523.54 488.05 505.00 488.03
         C 497.28 488.02 491.26 484.63 491.30 476.49
         Q 491.32 472.66 491.96 467.50
         Q 497.84 420.26 502.98 372.23
         A 0.10 0.10 0.0 0 0 502.80 372.16
         L 373.73 536.39
         A 0.30 0.30 0.0 0 0 373.97 536.87
         Q 427.29 536.85 518.32 536.83
         Q 525.24 536.83 527.72 537.98
         C 532.57 540.22 534.68 546.11 534.11 551.28
         C 530.91 580.31 526.62 614.33 523.60 646.77
         Q 523.42 648.67 522.89 650.90 Z"
    />
  </g>

  <!-- 6. TOP TEXT (ASSET INITIALS) -->
  <text
    fill="#FCD116"
    font-size="110"
    font-weight="900"
    font-family="Inter, system-ui, sans-serif"
    letter-spacing="12"
  >
    <textPath
      href="#textPathRed"
      startOffset="50%"
      text-anchor="middle"
      dominant-baseline="middle"
    >
      AUS
    </textPath>
  </text>

  <!-- 7. BOTTOM TEXT (MARKET CODE) -->
  <text
    fill="#FCD116"
    font-size="110"
    font-weight="900"
    font-family="Inter, system-ui, sans-serif"
    letter-spacing="10"
  >
    <textPath
      href="#textPathBottom"
      startOffset="50%"
      text-anchor="middle"
      dominant-baseline="middle"
    >
      T20
    </textPath>
  </text>

  <!-- 8. GLOSS -->
  <circle
    cx="512"
    cy="512"
    r="512"
    fill="url(#badgeReflect)"
    opacity="0.04"
    pointer-events="none"
  />
</svg>
